<svg xmlns="http://www.w3.org/2000/svg" viewBox="16.97 315.21 590.03 127.43">
 <title>green grass</title>
 <metadata id="metadata3953">image/svg+xml</metadata>
 <g>
  <title>Layer 1</title>
  <g id="layer1">
   <path d="m52.530388,437.153564c0.023502,-1.520935 0.032543,-3.043396 0,-4.5914c-0.024418,-1.086395 -0.085896,-2.1875 -0.141048,-3.286224c-0.339928,-6.745605 -1.277466,-13.228333 -2.881321,-19.161285c-1.603851,-5.932983 -3.860451,-11.321564 -6.611504,-16.020447c-2.511463,-4.360992 -5.425243,-8.128143 -8.362808,-11.235718c-2.937571,-3.107574 -5.909748,-5.550201 -8.532322,-7.466278c-5.928196,-3.382111 -9.323767,-5.701782 -9.012577,-6.355133c0.329176,-0.644836 4.385637,0.461609 11.414103,3.044952c3.226326,1.612183 6.913366,3.92569 10.62303,7.055695c3.709648,3.129242 7.421741,7.097443 10.651134,11.83963c3.39938,5.053802 6.240013,10.914063 8.249802,17.349609c2.009796,6.434784 3.20137,13.434021 3.531372,20.63504c0.054249,1.172211 0.074131,2.348297 0.084972,3.50351c0.018093,1.584351 -0.009937,3.136169 -0.056042,4.688049l-8.956791,0l0,0z" id="path4092" fill-rule="evenodd" fill="#007f00"/>
   <path d="m81.994255,437.153381c0.191391,-1.506866 0.404671,-3.0159 0.565018,-4.54248c0.950592,-9.050446 1.252357,-17.836182 0.97937,-26.127045c-0.316208,-9.706085 -1.43428,-18.746948 -2.938126,-26.80365c-1.503822,-8.056671 -3.379417,-15.113098 -5.122871,-20.972504c-1.743446,-5.859406 -3.3237,-10.52475 -4.294167,-13.788391c-0.970474,-3.263672 -1.336861,-5.132172 -0.715691,-5.380066c0.62117,-0.247925 2.164955,1.147949 4.294167,4.059204c2.129227,2.911224 4.85997,7.34729 7.646645,13.144043c2.786667,5.796844 5.602791,12.97049 7.910316,21.294708c2.307518,8.324249 4.079674,17.794464 4.783859,28.027832c0.597725,8.723328 0.465164,17.983917 -0.527351,27.480164c-0.126831,1.213593 -0.262505,2.407806 -0.41436,3.608185l-12.166809,0z" id="path4090" fill-rule="evenodd" fill="#007f00"/>
   <path d="m107.680077,437.153381c2.414215,-6.3703 4.909378,-12.4375 7.204453,-18.122467c2.473099,-6.125916 4.70752,-11.839996 6.526382,-17.083435c1.060844,-3.063751 1.988663,-5.956909 2.740509,-8.650452c0.751877,-2.693542 1.320854,-5.184692 1.751678,-7.466461c0.421745,-2.254395 0.696274,-4.302582 0.875832,-6.089142c0.179558,-1.786591 0.255905,-3.30603 0.310776,-4.566864c0.054886,-1.260834 0.107559,-2.261719 0.197777,-2.947937c0.090233,-0.686188 0.23185,-1.063721 0.480293,-1.111511c0.248444,-0.047791 0.597717,0.240906 0.988846,0.869904c0.391159,0.628998 0.833542,1.608673 1.243103,2.899597c0.409592,1.290894 0.769531,2.89679 1.01712,4.808472c0.247589,1.911682 0.356567,4.112427 0.282516,6.548248c-0.070602,2.461792 -0.307358,5.172028 -0.762817,8.070557c-0.45546,2.898438 -1.11467,6.002045 -1.949432,9.230347c-1.423393,5.518494 -3.328697,11.486145 -5.565796,17.76001c-1.814178,5.08786 -3.86544,10.407776 -5.904831,15.851135l-9.436409,0z" id="path4088" fill-rule="evenodd" fill="#007f00"/>
   <path d="m147.177399,437.153381c0.052444,-1.140259 0.122604,-2.267029 0.16951,-3.421509c0.005432,-0.114044 -0.004532,-0.233765 0,-0.347931c0.382492,-9.744965 0.563889,-19.042633 0.77977,-27.545959c0.215897,-8.503296 0.489166,-16.210236 0.8815,-22.674622c0.392303,-6.464386 0.899277,-11.69046 1.525604,-15.309753c0.626358,-3.619293 1.353424,-5.625153 2.10199,-5.625153c0.748581,0 1.464264,1.993713 2.135895,5.596161c0.671631,3.602478 1.309021,8.805634 1.898605,15.25177c0.589539,6.446106 1.125519,14.143951 1.457809,22.703613c0.332275,8.559692 0.452988,17.993988 0.067795,27.922882c-0.004517,0.116333 0.004532,0.23172 0,0.347961c-0.040848,1.045776 -0.116745,2.066956 -0.16951,3.102539l-10.848969,0z" id="path4086" fill-rule="evenodd" fill="#007f00"/>
   <path d="m175.571259,437.153564c0.228745,-4.878296 0.715149,-9.558624 1.46553,-13.844574c0.908615,-5.193787 2.186081,-9.815338 3.604584,-13.586365c1.418518,-3.771027 2.955475,-6.696899 4.233856,-8.633057c1.277481,-1.93692 2.272888,-2.889526 2.743912,-2.725616c0.471939,0.164703 0.377914,1.433563 -0.046112,3.56073c-0.424011,2.127869 -1.148209,5.120239 -1.860611,8.851868c-0.712418,3.731567 -1.39772,8.197723 -1.884094,13.208221c-0.395111,4.068726 -0.645554,8.513214 -0.814606,13.168793l-7.442459,0l0,0z" id="path4038" fill-rule="evenodd" fill="#007f00"/>
   <path d="m270.387451,358.255219c-0.280243,-0.003815 -0.733215,0.296936 -1.327209,0.91861c-0.678955,0.709808 -1.541473,1.839478 -2.486237,3.358887c-0.945679,1.518616 -1.96637,3.43158 -2.938293,5.750488c-0.972778,2.318878 -1.889526,5.049133 -2.599243,8.118866c-0.65094,2.815308 -1.115662,5.915131 -1.35611,9.25473c-0.241425,3.339539 -0.245941,6.919556 0.028015,10.655823c0.407745,5.516907 1.349792,11.381836 2.825287,17.446259c1.475433,6.064362 3.478912,12.322906 5.76355,18.654053c0.465607,1.290527 0.937531,2.552399 1.41217,3.817413c0.186249,0.497955 0.37793,0.979645 0.565063,1.473724l9.436859,0c-0.475555,-1.26886 -0.940247,-2.506744 -1.413086,-3.793396c-0.456573,-1.251099 -0.901367,-2.502167 -1.35611,-3.76947c-2.230408,-6.21521 -4.243805,-12.26181 -5.847656,-18.025421c-1.604767,-5.764404 -2.791809,-11.246613 -3.503326,-16.407074c-0.483734,-3.484161 -0.77121,-6.822144 -0.848053,-9.931274c-0.076843,-3.109192 0.05426,-5.996368 0.311005,-8.650085c0.555145,-5.776031 1.759369,-10.399872 2.627289,-13.604126c0.433929,-1.602142 0.767578,-2.860168 0.932098,-3.745483c0.165436,-0.885376 0.150085,-1.390289 -0.112976,-1.497742c-0.032562,-0.013947 -0.072357,-0.023987 -0.113037,-0.02478l0,0z" id="path4082" fill-rule="evenodd" fill="#007f00"/>
   <path d="m224.68251,358.805603c-0.102356,-0.017487 -0.239746,0.015747 -0.338531,0.144775c-0.098801,0.128967 -0.145233,0.37735 -0.169266,0.550079c-0.05072,0.30542 -0.055237,0.701752 0,1.158142c0.108978,0.902222 0.425461,2.114777 0.880188,3.56131c0.9048,2.875275 2.430725,6.826355 4.265579,11.639374c3.622223,9.497498 8.539993,22.542877 12.356689,37.929382c1.853455,7.479462 3.402664,15.522827 4.468704,23.915741l10.934784,0c-1.159927,-9.169586 -3.113571,-17.905701 -5.484314,-25.913574c-2.345367,-7.928741 -5.101044,-15.15271 -7.921814,-21.541534c-2.820724,-6.388794 -5.696014,-11.936523 -8.328033,-16.503632c-2.676743,-4.64624 -5.066711,-8.246979 -6.906204,-10.770721c-0.93306,-1.283722 -1.698807,-2.259338 -2.302078,-2.953308c-0.308304,-0.358307 -0.567337,-0.61438 -0.778625,-0.810699c-0.137192,-0.180603 -0.299637,-0.205902 -0.40625,-0.26062c-0.106583,-0.054626 -0.168549,-0.127228 -0.270828,-0.144714z" id="path4080" fill-rule="evenodd" fill="#007f00"/>
   <path d="m204.813141,374.130829c-0.5746,0.165436 -0.374817,2.161804 0.367279,5.630035c0.742111,3.468231 2.016632,8.425385 3.503342,14.546295c1.486725,6.120911 3.179398,13.390137 4.463928,21.50531c1.073456,6.781586 1.858597,14.157623 1.977692,21.891937l8.956116,0c-0.246552,-8.212128 -1.338638,-15.970184 -2.853516,-23.003448c-1.801178,-8.362366 -4.16008,-15.72821 -6.469879,-21.795258c-2.309799,-6.067078 -4.565109,-10.81958 -6.328613,-14.038879c-1.763504,-3.219299 -3.041748,-4.901459 -3.616348,-4.735992z" id="path4078" fill-rule="evenodd" fill="#007f00"/>
   <path d="m295.45755,375.68634c-0.668549,0 -1.295776,1.606323 -1.907532,4.454041c-0.611786,2.847748 -1.220947,6.948425 -1.816681,12.041504c-0.595764,5.093048 -1.162109,11.166382 -1.604767,17.945709c-0.442688,6.779358 -0.749054,14.268707 -0.575287,22.166748c0.005432,0.262329 0.023407,0.515259 0.030212,0.776855c0.032013,1.362854 0.088409,2.722748 0.151367,4.065613l9.689056,0c-0.050964,-1.403931 -0.113037,-2.815277 -0.151367,-4.246887c-0.006348,-0.254883 -0.024506,-0.495209 -0.030212,-0.751007c-0.174133,-7.699921 -0.164368,-15.088867 -0.211945,-21.830048c-0.047577,-6.74118 -0.14325,-12.835052 -0.423889,-17.971619c-0.280701,-5.136505 -0.724609,-9.295563 -1.271698,-12.170959c-0.547089,-2.875366 -1.20871,-4.47995 -1.877258,-4.47995z" id="path4076" fill-rule="evenodd" fill="#007f00"/>
   <path d="m304.347504,382.080536c-0.594086,0.15744 -0.547852,1.880737 -0.141235,4.856812c0.406616,2.976166 1.177094,7.2117 1.977692,12.444092c0.800537,5.232361 1.610107,11.473755 2.260223,18.436584c0.572754,6.134552 1.004517,12.849121 1.32785,19.886383l9.040894,0c-0.371918,-7.298065 -1.07135,-14.291443 -2.090698,-20.659607c-1.139893,-7.121185 -2.654633,-13.477295 -4.294434,-18.726532c-1.639771,-5.249207 -3.398285,-9.393707 -4.859467,-12.178314c-1.461182,-2.784515 -2.626678,-4.216858 -3.220825,-4.059418z" id="path4068" fill-rule="evenodd" fill="#007f00"/>
   <rect id="rect4094" width="557" height="15" x="50" y="427.643373" fill="#007f00"/>
   <path id="path2886" d="m52.530388,437.153564c0.023502,-1.520935 0.032543,-3.043396 0,-4.5914c-0.024418,-1.086395 -0.085896,-2.1875 -0.141048,-3.286224c-0.339928,-6.745605 -1.277466,-13.228333 -2.881321,-19.161285c-1.603851,-5.932983 -3.860451,-11.321564 -6.611504,-16.020447c-2.511463,-4.360992 -5.425243,-8.128143 -8.362808,-11.235718c-2.937571,-3.107574 -5.909748,-5.550201 -8.532322,-7.466278c-5.928196,-3.382111 -9.323767,-5.701782 -9.012577,-6.355133c0.329176,-0.644836 4.385637,0.461609 11.414103,3.044952c3.226326,1.612183 6.913366,3.92569 10.62303,7.055695c3.709648,3.129242 7.421741,7.097443 10.651134,11.83963c3.39938,5.053802 6.240013,10.914063 8.249802,17.349609c2.009796,6.434784 3.20137,13.434021 3.531372,20.63504c0.054249,1.172211 0.074131,2.348297 0.084972,3.50351c0.018093,1.584351 -0.009937,3.136169 -0.056042,4.688049l-8.956791,0l0,0z" fill-rule="evenodd" fill="#007f00"/>
   <path id="path2888" d="m81.994255,437.153381c0.191391,-1.506866 0.404671,-3.0159 0.565018,-4.54248c0.950592,-9.050446 1.252357,-17.836182 0.97937,-26.127045c-0.316208,-9.706085 -1.43428,-18.746948 -2.938126,-26.80365c-1.503822,-8.056671 -3.379417,-15.113098 -5.122871,-20.972504c-1.743446,-5.859406 -3.3237,-10.52475 -4.294167,-13.788391c-0.970474,-3.263672 -1.336861,-5.132172 -0.715691,-5.380066c0.62117,-0.247925 2.164955,1.147949 4.294167,4.059204c2.129227,2.911224 4.85997,7.34729 7.646645,13.144043c2.786667,5.796844 5.602791,12.97049 7.910316,21.294708c2.307518,8.324249 4.079674,17.794464 4.783859,28.027832c0.597725,8.723328 0.465164,17.983917 -0.527351,27.480164c-0.126831,1.213593 -0.262505,2.407806 -0.41436,3.608185l-12.166809,0z" fill-rule="evenodd" fill="#007f00"/>
   <path id="path2890" d="m107.680077,437.153381c2.414215,-6.3703 4.909378,-12.4375 7.204453,-18.122467c2.473099,-6.125916 4.70752,-11.839996 6.526382,-17.083435c1.060844,-3.063751 1.988663,-5.956909 2.740509,-8.650452c0.751877,-2.693542 1.320854,-5.184692 1.751678,-7.466461c0.421745,-2.254395 0.696274,-4.302582 0.875832,-6.089142c0.179558,-1.786591 0.255905,-3.30603 0.310776,-4.566864c0.054886,-1.260834 0.107559,-2.261719 0.197777,-2.947937c0.090233,-0.686188 0.23185,-1.063721 0.480293,-1.111511c0.248444,-0.047791 0.597717,0.240906 0.988846,0.869904c0.391159,0.628998 0.833542,1.608673 1.243103,2.899597c0.409592,1.290894 0.769531,2.89679 1.01712,4.808472c0.247589,1.911682 0.356567,4.112427 0.282516,6.548248c-0.070602,2.461792 -0.307358,5.172028 -0.762817,8.070557c-0.45546,2.898438 -1.11467,6.002045 -1.949432,9.230347c-1.423393,5.518494 -3.328697,11.486145 -5.565796,17.76001c-1.814178,5.08786 -3.86544,10.407776 -5.904831,15.851135l-9.436409,0z" fill-rule="evenodd" fill="#007f00"/>
   <path id="path2892" d="m147.177399,437.153381c0.052444,-1.140259 0.122604,-2.267029 0.16951,-3.421509c0.005432,-0.114044 -0.004532,-0.233765 0,-0.347931c0.382492,-9.744965 0.563889,-19.042633 0.77977,-27.545959c0.215897,-8.503296 0.489166,-16.210236 0.8815,-22.674622c0.392303,-6.464386 0.899277,-11.69046 1.525604,-15.309753c0.626358,-3.619293 1.353424,-5.625153 2.10199,-5.625153c0.748581,0 1.464264,1.993713 2.135895,5.596161c0.671631,3.602478 1.309021,8.805634 1.898605,15.25177c0.589539,6.446106 1.125519,14.143951 1.457809,22.703613c0.332275,8.559692 0.452988,17.993988 0.067795,27.922882c-0.004517,0.116333 0.004532,0.23172 0,0.347961c-0.040848,1.045776 -0.116745,2.066956 -0.16951,3.102539l-10.848969,0z" fill-rule="evenodd" fill="#007f00"/>
   <path id="path2894" d="m175.571259,437.153564c0.228745,-4.878296 0.715149,-9.558624 1.46553,-13.844574c0.908615,-5.193787 2.186081,-9.815338 3.604584,-13.586365c1.418518,-3.771027 2.955475,-6.696899 4.233856,-8.633057c1.277481,-1.93692 2.272888,-2.889526 2.743912,-2.725616c0.471939,0.164703 0.377914,1.433563 -0.046112,3.56073c-0.424011,2.127869 -1.148209,5.120239 -1.860611,8.851868c-0.712418,3.731567 -1.39772,8.197723 -1.884094,13.208221c-0.395111,4.068726 -0.645554,8.513214 -0.814606,13.168793l-7.442459,0l0,0z" fill-rule="evenodd" fill="#007f00"/>
   <path id="path2896" d="m270.387451,358.255219c-0.280243,-0.003815 -0.733215,0.296936 -1.327209,0.91861c-0.678955,0.709808 -1.541473,1.839478 -2.486237,3.358887c-0.945679,1.518616 -1.96637,3.43158 -2.938293,5.750488c-0.972778,2.318878 -1.889526,5.049133 -2.599243,8.118866c-0.65094,2.815308 -1.115662,5.915131 -1.35611,9.25473c-0.241425,3.339539 -0.245941,6.919556 0.028015,10.655823c0.407745,5.516907 1.349792,11.381836 2.825287,17.446259c1.475433,6.064362 3.478912,12.322906 5.76355,18.654053c0.465607,1.290527 0.937531,2.552399 1.41217,3.817413c0.186249,0.497955 0.37793,0.979645 0.565063,1.473724l9.436859,0c-0.475555,-1.26886 -0.940247,-2.506744 -1.413086,-3.793396c-0.456573,-1.251099 -0.901367,-2.502167 -1.35611,-3.76947c-2.230408,-6.21521 -4.243805,-12.26181 -5.847656,-18.025421c-1.604767,-5.764404 -2.791809,-11.246613 -3.503326,-16.407074c-0.483734,-3.484161 -0.77121,-6.822144 -0.848053,-9.931274c-0.076843,-3.109192 0.05426,-5.996368 0.311005,-8.650085c0.555145,-5.776031 1.759369,-10.399872 2.627289,-13.604126c0.433929,-1.602142 0.767578,-2.860168 0.932098,-3.745483c0.165436,-0.885376 0.150085,-1.390289 -0.112976,-1.497742c-0.032562,-0.013947 -0.072357,-0.023987 -0.113037,-0.02478l0,0z" fill-rule="evenodd" fill="#007f00"/>
   <path id="path2898" d="m224.68251,358.805603c-0.102356,-0.017487 -0.239746,0.015747 -0.338531,0.144775c-0.098801,0.128967 -0.145233,0.37735 -0.169266,0.550079c-0.05072,0.30542 -0.055237,0.701752 0,1.158142c0.108978,0.902222 0.425461,2.114777 0.880188,3.56131c0.9048,2.875275 2.430725,6.826355 4.265579,11.639374c3.622223,9.497498 8.539993,22.542877 12.356689,37.929382c1.853455,7.479462 3.402664,15.522827 4.468704,23.915741l10.934784,0c-1.159927,-9.169586 -3.113571,-17.905701 -5.484314,-25.913574c-2.345367,-7.928741 -5.101044,-15.15271 -7.921814,-21.541534c-2.820724,-6.388794 -5.696014,-11.936523 -8.328033,-16.503632c-2.676743,-4.64624 -5.066711,-8.246979 -6.906204,-10.770721c-0.93306,-1.283722 -1.698807,-2.259338 -2.302078,-2.953308c-0.308304,-0.358307 -0.567337,-0.61438 -0.778625,-0.810699c-0.137192,-0.180603 -0.299637,-0.205902 -0.40625,-0.26062c-0.106583,-0.054626 -0.168549,-0.127228 -0.270828,-0.144714z" fill-rule="evenodd" fill="#007f00"/>
   <path id="path2900" d="m204.813141,374.130829c-0.5746,0.165436 -0.374817,2.161804 0.367279,5.630035c0.742111,3.468231 2.016632,8.425385 3.503342,14.546295c1.486725,6.120911 3.179398,13.390137 4.463928,21.50531c1.073456,6.781586 1.858597,14.157623 1.977692,21.891937l8.956116,0c-0.246552,-8.212128 -1.338638,-15.970184 -2.853516,-23.003448c-1.801178,-8.362366 -4.16008,-15.72821 -6.469879,-21.795258c-2.309799,-6.067078 -4.565109,-10.81958 -6.328613,-14.038879c-1.763504,-3.219299 -3.041748,-4.901459 -3.616348,-4.735992z" fill-rule="evenodd" fill="#007f00"/>
   <path id="path2902" d="m295.45755,375.68634c-0.668549,0 -1.295776,1.606323 -1.907532,4.454041c-0.611786,2.847748 -1.220947,6.948425 -1.816681,12.041504c-0.595764,5.093048 -1.162109,11.166382 -1.604767,17.945709c-0.442688,6.779358 -0.749054,14.268707 -0.575287,22.166748c0.005432,0.262329 0.023407,0.515259 0.030212,0.776855c0.032013,1.362854 0.088409,2.722748 0.151367,4.065613l9.689056,0c-0.050964,-1.403931 -0.113037,-2.815277 -0.151367,-4.246887c-0.006348,-0.254883 -0.024506,-0.495209 -0.030212,-0.751007c-0.174133,-7.699921 -0.164368,-15.088867 -0.211945,-21.830048c-0.047577,-6.74118 -0.14325,-12.835052 -0.423889,-17.971619c-0.280701,-5.136505 -0.724609,-9.295563 -1.271698,-12.170959c-0.547089,-2.875366 -1.20871,-4.47995 -1.877258,-4.47995z" fill-rule="evenodd" fill="#007f00"/>
   <path id="path2904" d="m304.347504,382.080536c-0.594086,0.15744 -0.547852,1.880737 -0.141235,4.856812c0.406616,2.976166 1.177094,7.2117 1.977692,12.444092c0.800537,5.232361 1.610107,11.473755 2.260223,18.436584c0.572754,6.134552 1.004517,12.849121 1.32785,19.886383l9.040894,0c-0.371918,-7.298065 -1.07135,-14.291443 -2.090698,-20.659607c-1.139893,-7.121185 -2.654633,-13.477295 -4.294434,-18.726532c-1.639771,-5.249207 -3.398285,-9.393707 -4.859467,-12.178314c-1.461182,-2.784515 -2.626678,-4.216858 -3.220825,-4.059418z" fill-rule="evenodd" fill="#007f00"/>
   <path d="m59.818233,429.406647c0.023502,-1.561951 0.032547,-3.125397 0,-4.715149c-0.025311,-1.115753 -0.0886,-2.247009 -0.145569,-3.375122c-0.348965,-6.927307 -1.311821,-13.584808 -2.959072,-19.677795c-1.64724,-6.093018 -3.964417,-11.626221 -6.789692,-16.451935c-2.579365,-4.479248 -5.571262,-8.347748 -8.588017,-11.538818c-3.016762,-3.191101 -6.069141,-5.699463 -8.762329,-7.66806c-6.088123,-3.473328 -9.57519,-5.854858 -9.255596,-6.526031c0.338041,-0.662628 4.503803,0.473969 11.721764,3.126953c3.313393,1.656219 7.099709,4.031586 10.909809,7.24585c3.808918,3.213531 7.621456,7.289215 10.937653,12.158936c3.491585,5.189941 6.408165,11.207916 8.472198,17.816711c2.064034,6.608734 3.28817,13.7966 3.627205,21.191742c0.055153,1.204681 0.075943,2.411713 0.086792,3.598602c0.018082,1.626068 -0.009949,3.219696 -0.057861,4.814117l-9.197285,0l0,0z" id="path2906" fill-rule="evenodd" fill="#007f00"/>
   <path d="m90.075729,429.406311c0.196533,-1.547455 0.415581,-3.097168 0.580238,-4.664886c0.976227,-9.294464 1.286118,-18.316986 1.005791,-26.83139c-0.324745,-9.967773 -1.472969,-19.252289 -3.017326,-27.526184c-1.544373,-8.273834 -3.47052,-15.520508 -5.260986,-21.537872c-1.790428,-6.017365 -3.413284,-10.808441 -4.40992,-14.160095c-0.996628,-3.351624 -1.372917,-5.270477 -0.734985,-5.525085c0.637917,-0.254639 2.223328,1.178894 4.40992,4.16861c2.18663,2.989746 4.990974,7.545319 7.852783,13.498413c2.861771,5.953094 5.753838,13.320099 8.123543,21.868774c2.369736,8.548584 4.189651,18.274078 4.912834,28.783325c0.613823,8.958466 0.477692,18.468719 -0.54158,28.220947c-0.130249,1.246307 -0.269577,2.472687 -0.425529,3.705444l-12.494781,0z" id="path2908" fill-rule="evenodd" fill="#007f00"/>
   <path d="m116.453995,429.406311c2.479279,-6.542023 5.041718,-12.772797 7.398651,-18.610962c2.539749,-6.291107 4.834396,-12.15918 6.702301,-17.543976c1.089432,-3.146301 2.042267,-6.117493 2.814392,-8.883636c0.772156,-2.766174 1.35643,-5.324463 1.798904,-7.667725c0.433121,-2.315186 0.715073,-4.418579 0.899429,-6.253296c0.184387,-1.834747 0.262787,-3.395172 0.319168,-4.689972c0.05632,-1.29483 0.110443,-2.322723 0.203094,-3.027405c0.092651,-0.704712 0.238098,-1.092407 0.493256,-1.141479c0.255112,-0.049072 0.613815,0.247375 1.015503,0.893341c0.401657,0.645966 0.856003,1.652069 1.276611,2.977722c0.420654,1.325745 0.790268,2.974915 1.04454,4.938141c0.254272,1.963226 0.366165,4.223297 0.290131,6.724762c-0.07251,2.528137 -0.315659,5.311493 -0.783386,8.288086c-0.467728,2.976624 -1.14473,6.16391 -2.001984,9.479248c-1.461761,5.667175 -3.418442,11.795746 -5.715836,18.238739c-1.863083,5.224976 -3.969635,10.688324 -6.063995,16.278412l-9.690781,0z" id="path2910" fill-rule="evenodd" fill="#007f00"/>
   <path d="m157.015778,429.406647c0.054245,-1.171448 0.126556,-2.328186 0.174484,-3.514343c0.005432,-0.11676 -0.004517,-0.239716 0,-0.357208c0.392365,-10.007874 0.578613,-19.555664 0.801041,-28.288452c0.221497,-8.732025 0.501755,-16.646759 0.904968,-23.285675c0.402328,-6.638916 0.923096,-12.005859 1.566772,-15.722748c0.642807,-3.716888 1.389618,-5.776764 2.158081,-5.776764c0.769363,0 1.504379,2.047516 2.194199,5.747375c0.689819,3.699097 1.344376,9.042847 1.949219,15.662476c0.605743,6.620361 1.156357,14.525818 1.497177,23.315796c0.341721,8.790833 0.465622,18.479309 0.069611,28.675842c-0.004517,0.119049 0.004532,0.238129 0,0.357208c-0.04158,1.074036 -0.119339,2.122498 -0.173569,3.186493l-11.141983,0l0,0z" id="path2912" fill-rule="evenodd" fill="#007f00"/>
   <path d="m186.175308,429.406647c0.235062,-5.009735 0.735031,-9.816101 1.50531,-14.218079c0.933029,-5.33371 2.244858,-10.079773 3.70224,-13.952881c1.456482,-3.872314 3.034134,-6.877045 4.346863,-8.865753c1.312729,-1.988739 2.334351,-2.967651 2.818054,-2.798309c0.484573,0.168579 0.387833,1.471466 -0.047028,3.656586c-0.435791,2.18512 -1.179855,5.258667 -1.911255,9.090027c-0.7314,3.832092 -1.434799,8.418854 -1.934738,13.564697c-0.40593,4.177704 -0.662689,8.742828 -0.836288,13.523712l-7.643158,0l0,0z" id="path2914" fill-rule="evenodd" fill="#007f00"/>
   <path d="m283.547363,348.381927c-0.287537,-0.003876 -0.753113,0.304626 -1.363373,0.942535c-0.697083,0.729156 -1.583038,1.889008 -2.553131,3.449371c-0.970093,1.560364 -2.018829,3.524384 -3.017883,5.905884c-0.999023,2.381561 -1.93927,5.185242 -2.668854,8.337708c-0.668121,2.891083 -1.145477,6.074463 -1.393219,9.503723c-0.247681,3.429993 -0.252197,7.105927 0.028961,10.94342c0.419464,5.665436 1.385956,11.68808 2.90213,17.916412c1.515228,6.22757 3.572937,12.654602 5.918152,19.156647c0.478241,1.32605 0.96286,2.622009 1.45105,3.921021c0.191681,0.511108 0.387878,1.005981 0.580414,1.513184l9.690948,0c-0.48822,-1.302887 -0.965576,-2.574799 -1.45108,-3.895477c-0.469238,-1.285095 -0.925781,-2.569427 -1.392273,-3.871552c-2.290985,-6.382172 -4.358612,-12.591949 -6.00589,-18.51178c-1.648132,-5.919037 -2.866852,-11.54892 -3.598236,-16.848602c-0.496368,-3.578461 -0.791107,-7.006165 -0.870667,-10.198822c-0.078674,-3.19339 0.056061,-6.157959 0.319122,-8.883545c0.570496,-5.931427 1.807281,-10.680542 2.698761,-13.970642c0.445679,-1.645447 0.78833,-2.937469 0.957397,-3.846802c0.169067,-0.908539 0.154572,-1.427399 -0.115692,-1.537964c-0.034363,-0.013885 -0.075043,-0.024719 -0.116638,-0.024719l0,0z" id="path2916" fill-rule="evenodd" fill="#007f00"/>
   <path d="m236.610474,348.946442c-0.105133,-0.017914 -0.246216,0.016144 -0.347672,0.148682c-0.101456,0.132477 -0.149124,0.387543 -0.173813,0.564941c-0.052109,0.313599 -0.056732,0.720642 0,1.189392c0.111923,0.926514 0.436905,2.171722 0.903915,3.657288c0.929153,2.952789 2.496262,7.010376 4.380569,11.953125c3.719833,9.75351 8.770187,23.150543 12.689758,38.951813c1.903442,7.681091 3.494415,15.941254 4.589172,24.560425l11.229584,0c-1.191223,-9.416748 -3.19751,-18.388397 -5.632172,-26.612061c-2.408569,-8.142517 -5.238556,-15.561218 -8.135345,-22.122253c-2.89679,-6.561035 -5.849579,-12.25827 -8.552567,-16.948517c-2.748871,-4.771545 -5.203278,-8.46933 -7.092361,-11.061096c-0.958221,-1.318329 -1.744614,-2.320221 -2.36412,-3.032898c-0.316635,-0.36795 -0.582642,-0.630981 -0.799622,-0.832581c-0.1409,-0.185425 -0.307755,-0.211426 -0.417236,-0.267578c-0.109436,-0.056122 -0.17305,-0.130676 -0.278091,-0.148682z" id="path2918" fill-rule="evenodd" fill="#007f00"/>
   <path d="m216.205444,364.684814c-0.590073,0.169891 -0.384918,2.220093 0.377197,5.78183c0.762115,3.561707 2.070969,8.652527 3.597778,14.938416c1.526779,6.285889 3.265091,13.751068 4.584244,22.084991c1.102386,6.964417 1.908691,14.539276 2.031021,22.482117l9.197556,0c-0.253189,-8.433502 -1.374725,-16.400696 -2.930466,-23.623535c-1.849716,-8.58783 -4.272232,-16.152252 -6.644302,-22.382843c-2.372055,-6.230591 -4.688156,-11.111237 -6.499191,-14.417297c-1.81105,-3.30603 -3.123749,-5.033569 -3.713837,-4.863678z" id="path2920" fill-rule="evenodd" fill="#007f00"/>
   <path d="m309.293335,366.282288c-0.686554,0 -1.330688,1.649658 -1.958954,4.574127c-0.628235,2.924469 -1.253845,7.135712 -1.865662,12.366119c-0.611786,5.230347 -1.19339,11.467377 -1.64798,18.429443c-0.45462,6.962097 -0.769257,14.653351 -0.59082,22.764282c0.005402,0.26944 0.024048,0.529144 0.031006,0.797821c0.032928,1.399628 0.09079,2.796143 0.155518,4.175171l9.950195,0c-0.052307,-1.441772 -0.116058,-2.891144 -0.155457,-4.361359c-0.006317,-0.261749 -0.025116,-0.508514 -0.031006,-0.77121c-0.178833,-7.907532 -0.168823,-15.495636 -0.217682,-22.418549c-0.048798,-6.922882 -0.147064,-13.18103 -0.435303,-18.456085c-0.288239,-5.274963 -0.744171,-9.546143 -1.305969,-12.499023c-0.561829,-2.952911 -1.241302,-4.600739 -1.927887,-4.600739z" id="path2922" fill-rule="evenodd" fill="#007f00"/>
   <path d="m318.423004,372.848846c-0.610168,0.161682 -0.562683,1.931396 -0.145081,4.987732c0.417572,3.056366 1.208832,7.406128 2.030975,12.779541c0.822174,5.373413 1.653534,11.783051 2.321167,18.933594c0.588196,6.299896 1.031586,13.195465 1.363678,20.422455l9.284576,0c-0.381927,-7.494843 -1.10022,-14.676697 -2.147064,-21.216553c-1.170624,-7.31311 -2.726166,-13.840607 -4.410187,-19.231323c-1.68399,-5.390717 -3.489899,-9.646942 -4.990417,-12.506561c-1.50061,-2.85965 -2.69754,-4.330566 -3.307648,-4.168884z" id="path2924" fill-rule="evenodd" fill="#007f00"/>
   <path id="path2926" d="m77.977737,431.804413c0.02079,-1.346954 0.028015,-2.693909 0,-4.064117c-0.021698,-0.962646 -0.075943,-1.93692 -0.125671,-2.909637c-0.301056,-5.970825 -1.13102,-11.709686 -2.550438,-16.961426c-1.420311,-5.252563 -3.417442,-10.02179 -5.85215,-14.181732c-2.223152,-3.860687 -4.802513,-7.194855 -7.403584,-9.946014c-2.600151,-2.751129 -5.231045,-4.913025 -7.552734,-6.609528c-5.24733,-2.993927 -8.253414,-5.046814 -7.977669,-5.625214c0.291115,-0.571381 3.882153,0.408264 10.10408,2.694733c2.856014,1.427368 6.119766,3.475647 9.403416,6.246094c3.283646,2.770447 6.569992,6.283203 9.428726,10.481079c3.008804,4.473083 5.523972,9.660614 7.302307,15.357788c1.779251,5.69635 2.83432,11.892212 3.126343,18.266632c0.04792,1.037689 0.065994,2.078461 0.075035,3.10144c0.015366,1.401855 -0.009041,2.775848 -0.049721,4.149902l-7.92794,0l0,0z" fill-rule="evenodd" fill="#007f00"/>
   <path id="path2928" d="m104.059036,431.804077c0.169426,-1.333893 0.358223,-2.669708 0.50016,-4.021057c0.841492,-8.011597 1.108612,-15.788849 0.866966,-23.128082c-0.279907,-8.59198 -1.269653,-16.595062 -2.600861,-23.726959c-1.331223,-7.131897 -2.991524,-13.378387 -4.534866,-18.565186c-1.54332,-5.186859 -2.942177,-9.316711 -3.801247,-12.20578c-0.8591,-2.889008 -1.183426,-4.54303 -0.633553,-4.762482c0.549866,-0.219452 1.916458,1.016205 3.801262,3.593262c1.884827,2.577057 4.302109,6.503937 6.768929,11.635376c2.466782,5.131378 4.959679,11.481659 7.002335,18.850372c2.042641,7.368713 3.611389,15.751923 4.234756,24.810699c0.529091,7.721985 0.411751,15.919586 -0.466843,24.325806c-0.112251,1.07431 -0.232361,2.131409 -0.366783,3.194031l-10.770256,0z" fill-rule="evenodd" fill="#007f00"/>
   <path id="path2930" d="m126.796547,431.804077c2.137077,-5.639099 4.345848,-11.009857 6.37748,-16.042297c2.189209,-5.42276 4.167175,-10.480896 5.777237,-15.122528c0.939102,-2.712036 1.760391,-5.273163 2.425964,-7.657501c0.665573,-2.384369 1.16922,-4.589539 1.550613,-6.609406c0.373337,-1.995636 0.616348,-3.808746 0.775299,-5.390198c0.15892,-1.581512 0.226517,-2.926575 0.275101,-4.042664c0.048538,-1.116089 0.095184,-2.002136 0.175064,-2.609558c0.079819,-0.607422 0.205246,-0.94162 0.425171,-0.983948c0.219925,-0.042267 0.529114,0.213226 0.875336,0.770081c0.346268,0.556793 0.737869,1.424011 1.100418,2.566711c0.362595,1.142761 0.681183,2.564331 0.900375,4.256561c0.219162,1.69223 0.315628,3.640411 0.250092,5.7966c-0.062485,2.17923 -0.272095,4.57843 -0.675278,7.144226c-0.403168,2.565735 -0.98671,5.313141 -1.725662,8.170868c-1.26001,4.884979 -2.946625,10.167694 -4.926926,15.721405c-1.605942,4.503815 -3.421738,9.213104 -5.227051,14.031647l-8.353233,0z" fill-rule="evenodd" fill="#007f00"/>
   <path id="path2932" d="m161.760422,431.804413c0.046127,-1.009857 0.108505,-2.007294 0.150085,-3.028748c0.004517,-0.101288 -0.003616,-0.207245 0,-0.308533c0.338135,-8.626099 0.499054,-16.856293 0.689819,-24.383606c0.191666,-7.527405 0.43306,-14.349548 0.780243,-20.072205c0.347153,-5.722626 0.796478,-10.348816 1.350677,-13.552277c0.55423,-3.204224 1.197937,-4.979584 1.860626,-4.979584c0.662704,0 1.296463,1.764496 1.890427,4.954041c0.59491,3.188812 1.159058,7.794922 1.68071,13.500519c0.522568,5.706421 0.996323,12.520844 1.291031,20.097687c0.293823,7.577576 0.400513,15.928406 0.059692,24.717651c-0.003616,0.103638 0.003616,0.205688 0,0.308563c-0.036163,0.925507 -0.103073,1.829407 -0.150085,2.74649l-9.603226,0l0,0z" fill-rule="evenodd" fill="#007f00"/>
   <path id="path2934" d="m186.894974,431.804413c0.202515,-4.318481 0.632843,-8.461456 1.297363,-12.255646c0.804626,-4.597595 1.935654,-8.688721 3.191422,-12.026764c1.254868,-3.338776 2.61554,-5.928284 3.746552,-7.642517c1.131897,-1.714233 2.012482,-2.557831 2.429276,-2.412476c0.417679,0.146118 0.334503,1.26886 -0.040665,3.152435c-0.375214,1.882782 -1.01622,4.532623 -1.647278,7.835876c-0.630142,3.303192 -1.236771,7.256714 -1.668045,11.691925c-0.348969,3.600922 -0.570465,7.535858 -0.720551,11.657166l-6.588074,0l0,0z" fill-rule="evenodd" fill="#007f00"/>
   <path id="path2936" d="m270.827759,361.96286c-0.247742,-0.003113 -0.64917,0.262115 -1.175323,0.812622c-0.601196,0.628632 -1.364288,1.628448 -2.200562,2.973083c-0.836243,1.344635 -1.740356,3.038025 -2.601074,5.090912c-0.861572,2.052124 -1.672516,4.469238 -2.300873,7.18634c-0.575897,2.492126 -0.987274,5.236267 -1.200623,8.192291c-0.213379,2.956848 -0.217896,6.125488 0.024414,9.43338c0.361633,4.882904 1.19519,10.075134 2.501587,15.44281c1.306396,5.368561 3.0802,10.908691 5.101776,16.513031c0.412262,1.142822 0.829956,2.260162 1.250366,3.379791c0.16449,0.440735 0.334503,0.867493 0.499939,1.304382l8.35376,0c-0.421295,-1.122711 -0.832672,-2.219147 -1.250336,-3.358093c-0.40506,-1.107269 -0.79834,-2.214508 -1.200623,-3.336456c-1.974579,-5.501495 -3.75647,-10.854553 -5.176819,-15.957062c-1.421204,-5.101715 -2.471802,-9.955261 -3.101929,-14.523499c-0.427643,-3.084351 -0.681671,-6.038879 -0.749481,-8.790771c-0.068726,-2.752686 0.046997,-5.308167 0.274841,-7.65802c0.491821,-5.112549 1.557739,-9.205994 2.326202,-12.042206c0.383362,-1.418091 0.678986,-2.531555 0.824554,-3.315582c0.146454,-0.783264 0.132874,-1.230194 -0.099457,-1.32608c-0.028931,-0.011627 -0.065094,-0.020874 -0.100342,-0.020874l0,0z" fill-rule="evenodd" fill="#007f00"/>
   <path id="path2938" d="m230.368927,362.449371c-0.090607,-0.015472 -0.212234,0.013947 -0.299683,0.128204c-0.087448,0.114136 -0.12854,0.334015 -0.149841,0.486938c-0.044846,0.270325 -0.048828,0.621155 0,1.025177c0.096466,0.798676 0.376633,1.87204 0.779175,3.152557c0.800934,2.545227 2.151733,6.042755 3.77597,10.303345c3.206436,8.407288 7.559692,19.955261 10.938278,33.575653c1.640732,6.620941 3.0121,13.741028 3.955826,21.170593l9.679657,0c-1.026825,-8.117065 -2.756195,-15.850403 -4.854828,-22.939087c-2.076172,-7.018677 -4.515549,-13.413452 -7.012527,-19.068939c-2.496979,-5.655426 -5.042191,-10.566376 -7.372116,-14.609222c-2.369507,-4.112976 -4.485123,-7.300385 -6.113495,-9.534454c-0.825943,-1.136383 -1.503784,-1.999939 -2.037796,-2.614319c-0.272903,-0.317139 -0.502228,-0.543854 -0.68927,-0.717621c-0.121429,-0.159851 -0.265259,-0.182251 -0.359619,-0.230621c-0.09436,-0.048431 -0.149216,-0.112671 -0.239731,-0.128204z" fill-rule="evenodd" fill="#007f00"/>
   <path id="path2940" d="m212.780243,376.015503c-0.508652,0.146454 -0.331802,1.913666 0.325119,4.983826c0.656937,3.070099 1.785141,7.458282 3.101227,12.876556c1.316071,5.418335 2.814438,11.85318 3.951538,19.036865c0.950211,6.003143 1.645264,12.532562 1.750671,19.379089l7.928085,0c-0.218246,-7.269531 -1.184967,-14.137024 -2.525986,-20.363007c-1.594406,-7.402496 -3.682541,-13.922913 -5.727219,-19.293518c-2.044693,-5.370636 -4.041107,-9.577667 -5.602188,-12.427429c-1.561096,-2.849701 -2.692627,-4.338837 -3.201248,-4.192383z" fill-rule="evenodd" fill="#007f00"/>
   <path id="path2942" d="m293.020081,377.392487c-0.591827,0 -1.147034,1.421936 -1.688599,3.94281c-0.541565,2.520813 -1.08078,6.150818 -1.608185,10.659302c-0.527313,4.508484 -1.028656,9.884674 -1.420502,15.885864c-0.391907,6.001129 -0.663055,12.630829 -0.509277,19.622284c0.004517,0.232239 0.020721,0.456116 0.026764,0.687714c0.028412,1.206451 0.078278,2.410217 0.134033,3.598938l8.576904,0c-0.045105,-1.242798 -0.100067,-2.492126 -0.134003,-3.759399c-0.005432,-0.225647 -0.021729,-0.438385 -0.026794,-0.664795c-0.154144,-6.816101 -0.145508,-13.356903 -0.187592,-19.32428c-0.042175,-5.967438 -0.126801,-11.361847 -0.375244,-15.908783c-0.248474,-4.546967 -0.641479,-8.228607 -1.125732,-10.773895c-0.484283,-2.54538 -1.069977,-3.965759 -1.661774,-3.965759z" fill-rule="evenodd" fill="#007f00"/>
   <path id="path2944" d="m300.889648,383.052734c-0.52597,0.139374 -0.484985,1.664856 -0.125061,4.299316c0.359894,2.634491 1.041962,6.383972 1.750671,11.015717c0.708679,4.631744 1.425262,10.156708 2.000793,16.320374c0.507019,5.430359 0.889221,11.374176 1.175415,17.603699l8.003143,0c-0.329224,-6.460388 -0.948364,-12.651001 -1.850677,-18.288208c-1.009064,-6.303741 -2.349915,-11.930328 -3.801514,-16.576996c-1.451538,-4.646667 -3.00827,-8.315491 -4.301697,-10.780426c-1.293427,-2.464935 -2.325195,-3.732849 -2.851074,-3.593475z" fill-rule="evenodd" fill="#007f00"/>
   <path d="m207.312622,431.804077c-0.169403,-1.333893 -0.358231,-2.669708 -0.500168,-4.021057c-0.841476,-8.011597 -1.108612,-15.788849 -0.866943,-23.128082c0.279907,-8.59198 1.269638,-16.595062 2.600845,-23.726959c1.331223,-7.131897 2.991547,-13.378387 4.534866,-18.565186c1.543335,-5.186859 2.942184,-9.316711 3.80127,-12.20578c0.859085,-2.889008 1.183426,-4.54303 0.633545,-4.762482c-0.549896,-0.219452 -1.916458,1.016205 -3.80127,3.593262c-1.884827,2.577057 -4.302109,6.503937 -6.768921,11.635376c-2.466797,5.131378 -4.959686,11.481659 -7.002319,18.850372c-2.042679,7.368713 -3.61142,15.751923 -4.234772,24.810699c-0.529114,7.721985 -0.411774,15.919586 0.466827,24.325806c0.112259,1.07431 0.232376,2.131409 0.366791,3.194031l10.770248,0z" id="path2948" fill-rule="evenodd" fill="#007f00"/>
   <path d="m175.253021,361.96286c0.247711,-0.003113 0.649124,0.262115 1.175308,0.812622c0.601227,0.628632 1.364273,1.628448 2.200562,2.973083c0.836288,1.344635 1.740356,3.038025 2.601044,5.090912c0.861603,2.052124 1.672562,4.469238 2.300934,7.18634c0.575882,2.492126 0.987228,5.236267 1.200607,8.192291c0.213379,2.956848 0.217896,6.125488 -0.025314,9.43338c-0.360718,4.882904 -1.19429,10.075134 -2.500687,15.44281c-1.306427,5.368561 -3.080261,10.908691 -5.101791,16.513031c-0.412247,1.142822 -0.829941,2.260162 -1.250336,3.379791c-0.164566,0.440735 -0.334503,0.867493 -0.500854,1.304382l-8.352875,0c0.42131,-1.122711 0.832657,-2.219147 1.250351,-3.358093c0.405029,-1.107269 0.798309,-2.214508 1.200623,-3.336456c1.974518,-5.501495 3.756485,-10.854553 5.176819,-15.957062c1.421219,-5.101715 2.471756,-9.955261 3.101013,-14.523499c0.428543,-3.084351 0.682587,-6.038879 0.750381,-8.790771c0.068726,-2.752686 -0.047028,-5.308167 -0.274826,-7.65802c-0.491837,-5.112549 -1.557739,-9.205994 -2.326218,-12.042206c-0.383347,-1.418091 -0.678986,-2.531555 -0.824554,-3.315582c-0.146439,-0.783264 -0.132889,-1.230194 0.099472,-1.32608c0.028915,-0.011627 0.065094,-0.020874 0.100342,-0.020874l0,0z" id="path2956" fill-rule="evenodd" fill="#007f00"/>
   <path d="m292.559235,366.315521c0.090607,-0.015503 0.212219,0.013916 0.299683,0.128174c0.087433,0.114166 0.12854,0.334015 0.149872,0.486938c0.0448,0.270325 0.048798,0.621155 0,1.025177c-0.096497,0.798676 -0.376678,1.87207 -0.779205,3.152557c-0.800934,2.545227 -2.151733,6.042755 -3.77597,10.303345c-3.206421,8.407318 -7.559692,19.955261 -10.938324,33.575684c-1.640686,6.620911 -3.012085,13.741028 -3.95578,21.170563l-9.679657,0c1.026825,-8.117065 2.756195,-15.850403 4.854828,-22.939087c2.076172,-7.018677 4.515533,-13.413452 7.012543,-19.068909c2.496948,-5.655457 5.042175,-10.566406 7.372101,-14.609253c2.369507,-4.112946 4.485107,-7.300385 6.113464,-9.534454c0.825958,-1.136383 1.503815,-1.999939 2.037842,-2.614288c0.272888,-0.317169 0.502197,-0.543884 0.68927,-0.717651c0.121399,-0.159851 0.265228,-0.182251 0.359589,-0.230621c0.094391,-0.048431 0.149231,-0.112671 0.239746,-0.128174z" id="path2958" fill-rule="evenodd" fill="#007f00"/>
   <path d="m333.654205,376.015503c0.508667,0.146454 0.331787,1.913666 -0.325134,4.983826c-0.656921,3.070099 -1.785156,7.458282 -3.101227,12.876556c-1.316071,5.418335 -2.814423,11.85318 -3.951538,19.036865c-0.950195,6.003143 -1.645264,12.532562 -1.750671,19.379089l-7.928101,0c0.218262,-7.269531 1.184998,-14.137024 2.526001,-20.363007c1.594421,-7.402496 3.682526,-13.922913 5.727234,-19.293518c2.044678,-5.370636 4.041107,-9.577667 5.602173,-12.427429c1.561096,-2.849701 2.692596,-4.338837 3.201263,-4.192383z" id="path2960" fill-rule="evenodd" fill="#007f00"/>
   <path d="m134.074799,375.072815c0.591827,0 1.147064,1.421936 1.688599,3.94281c0.541565,2.520813 1.08078,6.150818 1.60817,10.659302c0.527344,4.508484 1.028702,9.884674 1.420532,15.885864c0.391861,6.001129 0.663055,12.630829 0.509262,19.622284c-0.004517,0.232239 -0.020691,0.456116 -0.026749,0.687683c-0.028397,1.206482 -0.078308,2.410248 -0.134048,3.598969l-8.576889,0c0.045105,-1.242798 0.100052,-2.492126 0.134018,-3.75943c0.005417,-0.225616 0.021698,-0.438354 0.026749,-0.664764c0.15416,-6.816101 0.145523,-13.356903 0.187637,-19.32428c0.04213,-5.967438 0.126801,-11.361847 0.375229,-15.908783c0.248459,-4.546967 0.641449,-8.228607 1.125717,-10.773895c0.484299,-2.54538 1.069992,-3.965759 1.661774,-3.965759z" id="path2962" fill-rule="evenodd" fill="#007f00"/>
   <path d="m193.107727,379.959839c0.52594,0.139343 0.484985,1.664856 0.125046,4.299316c-0.35994,2.634491 -1.041992,6.383972 -1.750687,11.015717c-0.708679,4.631744 -1.425262,10.156677 -2.000778,16.320343c-0.507019,5.430389 -0.889206,11.374207 -1.175446,17.603729l-8.003128,0c0.329239,-6.460388 0.94838,-12.651001 1.850723,-18.288208c1.009048,-6.303741 2.349915,-11.930359 3.801483,-16.576996c1.451569,-4.646667 3.00824,-8.315491 4.301697,-10.780426c1.293442,-2.464935 2.325165,-3.732849 2.851089,-3.593475z" id="path2964" fill-rule="evenodd" fill="#007f00"/>
   <path id="path2966" d="m323.756622,437.153564c0.023529,-1.520935 0.032562,-3.043396 0,-4.5914c-0.024384,-1.086395 -0.084991,-2.1875 -0.141022,-3.286224c-0.339935,-6.745605 -1.277466,-13.228333 -2.881317,-19.161285c-1.603851,-5.932983 -3.860443,-11.321564 -6.611603,-16.020447c-2.511536,-4.360992 -5.425446,-8.128143 -8.362793,-11.235718c-2.937408,-3.107574 -5.910034,-5.550201 -8.531891,-7.466278c-5.929016,-3.382111 -9.323822,-5.701782 -9.012848,-6.355133c0.329071,-0.644836 4.385712,0.461609 11.414124,3.044952c3.226685,1.612183 6.913544,3.92569 10.623016,7.055695c3.709442,3.129242 7.421661,7.097443 10.651062,11.83963c3.399323,5.053802 6.23999,10.914063 8.249786,17.349609c2.009796,6.434784 3.201355,13.434021 3.531372,20.63504c0.05426,1.172211 0.074127,2.348297 0.084991,3.50351c0.018066,1.584351 -0.009979,3.136169 -0.056061,4.688049l-8.956818,0l0,0z" fill-rule="evenodd" fill="#007f00"/>
   <path id="path2968" d="m353.22049,437.153381c0.191406,-1.506866 0.404663,-3.0159 0.565033,-4.54248c0.950592,-9.050446 1.25235,-17.836182 0.979401,-26.127045c-0.316223,-9.706085 -1.434326,-18.746948 -2.938141,-26.80365c-1.503815,-8.056671 -3.379425,-15.113098 -5.122864,-20.972504c-1.743469,-5.859406 -3.3237,-10.52475 -4.294189,-13.788391c-0.97049,-3.263672 -1.336853,-5.132172 -0.715698,-5.380066c0.621185,-0.247925 2.164978,1.147949 4.294189,4.059204c2.129211,2.911224 4.859985,7.34729 7.646637,13.144043c2.786652,5.796844 5.602783,12.97049 7.910339,21.294708c2.307495,8.324249 4.079681,17.794464 4.783813,28.027832c0.597748,8.723328 0.465149,17.983917 -0.527313,27.480164c-0.126862,1.213593 -0.262543,2.407806 -0.414337,3.608185l-12.16687,0z" fill-rule="evenodd" fill="#007f00"/>
   <path id="path2970" d="m378.906372,437.153381c2.414185,-6.3703 4.909363,-12.4375 7.204437,-18.122467c2.473083,-6.125916 4.707489,-11.839996 6.526367,-17.083435c1.060852,-3.063751 1.988647,-5.956909 2.74054,-8.650452c0.751831,-2.693542 1.320801,-5.184692 1.751648,-7.466461c0.421753,-2.254395 0.696289,-4.302582 0.875854,-6.089142c0.179535,-1.786591 0.25589,-3.30603 0.31076,-4.566864c0.054871,-1.260834 0.107544,-2.261719 0.197784,-2.947937c0.09021,-0.686188 0.231873,-1.063721 0.480255,-1.111511c0.248444,-0.047791 0.597717,0.240906 0.988861,0.869904c0.391174,0.628998 0.833527,1.608673 1.243134,2.899597c0.409576,1.290894 0.769501,2.89679 1.01709,4.808472c0.24762,1.911682 0.356598,4.112427 0.282532,6.548248c-0.070618,2.461792 -0.307343,5.172028 -0.762817,8.070557c-0.455475,2.898438 -1.114685,6.002045 -1.949432,9.230347c-1.423401,5.518494 -3.328705,11.486145 -5.565796,17.76001c-1.814209,5.08786 -3.865448,10.407776 -5.904816,15.851135l-9.436401,0z" fill-rule="evenodd" fill="#007f00"/>
   <path id="path2972" d="m511.693207,437.153381c-0.05246,-1.140259 -0.12262,-2.267029 -0.169556,-3.421509c-0.005432,-0.114044 0.004547,-0.233765 0,-0.347931c-0.382446,-9.744965 -0.563873,-19.042633 -0.779755,-27.545959c-0.215851,-8.503296 -0.489166,-16.210236 -0.881439,-22.674622c-0.392395,-6.464386 -0.899384,-11.69046 -1.525665,-15.309753c-0.626343,-3.619293 -1.353455,-5.625153 -2.102051,-5.625153c-0.748535,0 -1.464203,1.993713 -2.135803,5.596161c-0.671692,3.602478 -1.309021,8.805634 -1.898621,15.25177c-0.589539,6.446106 -1.125519,14.143951 -1.457855,22.703613c-0.332184,8.559692 -0.452942,17.993988 -0.06778,27.922882c0.004517,0.116333 -0.004486,0.23172 0,0.347961c0.040894,1.045776 0.11673,2.066956 0.169586,3.102539l10.848938,0z" fill-rule="evenodd" fill="#007f00"/>
   <path id="path2974" d="m483.299133,437.153564c-0.228729,-4.878296 -0.715118,-9.558624 -1.465485,-13.844574c-0.90863,-5.193787 -2.186127,-9.815338 -3.604614,-13.586365c-1.418549,-3.771027 -2.955444,-6.696899 -4.232941,-8.633057c-1.278381,-1.93692 -2.272858,-2.889526 -2.744812,-2.725616c-0.471924,0.164703 -0.377869,1.433563 0.046112,3.56073c0.424896,2.127869 1.149078,5.120239 1.860596,8.851868c0.712433,3.731567 1.397766,8.197723 1.884094,13.208221c0.395111,4.068726 0.645569,8.513214 0.814606,13.168793l7.442444,0l0,0z" fill-rule="evenodd" fill="#007f00"/>
   <path id="path2976" d="m541.613708,358.255219c-0.280212,-0.003815 -0.733276,0.296936 -1.327209,0.91861c-0.678955,0.709808 -1.541504,1.839478 -2.486267,3.358887c-0.945679,1.518616 -1.966309,3.43158 -2.938232,5.750488c-0.972839,2.318878 -1.889526,5.049133 -2.599243,8.118866c-0.65094,2.815308 -1.115723,5.915131 -1.356201,9.25473c-0.241333,3.339539 -0.24585,6.919556 0.028076,10.655823c0.407776,5.516907 1.349792,11.381836 2.825256,17.446259c1.475464,6.064362 3.478943,12.322906 5.76355,18.654053c0.465637,1.290527 0.937561,2.552399 1.412231,3.817413c0.186218,0.497955 0.377869,0.979645 0.565063,1.473724l9.436829,0c-0.475525,-1.26886 -0.940247,-2.506744 -1.413086,-3.793396c-0.456604,-1.251099 -0.901367,-2.502167 -1.35614,-3.76947c-2.230408,-6.21521 -4.242859,-12.26181 -5.847656,-18.025421c-1.604736,-5.764404 -2.791809,-11.246613 -3.503296,-16.407074c-0.483704,-3.484161 -0.77124,-6.822144 -0.848022,-9.931274c-0.076904,-3.109192 0.054199,-5.996368 0.310974,-8.650085c0.555115,-5.776031 1.759338,-10.399872 2.627258,-13.604126c0.43396,-1.602142 0.767578,-2.860168 0.932129,-3.745483c0.165466,-0.885376 0.150085,-1.390289 -0.113037,-1.497742c-0.032532,-0.013947 -0.072327,-0.023987 -0.112976,-0.02478l0,0z" fill-rule="evenodd" fill="#007f00"/>
   <path id="path2978" d="m434.18808,358.805603c0.102386,-0.017487 0.239777,0.015747 0.338531,0.144775c0.098785,0.128967 0.145264,0.37735 0.169312,0.550079c0.05069,0.30542 0.055237,0.701752 0,1.158142c-0.109009,0.902222 -0.425507,2.114777 -0.880249,3.56131c-0.904724,2.875275 -2.430725,6.826355 -4.265564,11.639374c-3.622192,9.497498 -8.539978,22.542877 -12.356659,37.929382c-1.853455,7.479462 -3.402679,15.522827 -4.468719,23.915741l-10.934784,0c1.159943,-9.169586 3.113525,-17.905701 5.484283,-25.913574c2.345367,-7.928741 5.101074,-15.15271 7.921844,-21.541534c2.82074,-6.388794 5.696014,-11.936523 8.328033,-16.503632c2.676727,-4.64624 5.066711,-8.246979 6.906219,-10.770721c0.933044,-1.283722 1.698792,-2.259338 2.302032,-2.953308c0.308289,-0.358307 0.567352,-0.61438 0.778656,-0.810699c0.137177,-0.180603 0.299652,-0.205902 0.40625,-0.26062c0.106598,-0.054626 0.168579,-0.127228 0.270813,-0.144714z" fill-rule="evenodd" fill="#007f00"/>
   <path id="path2980" d="m454.057495,374.130829c0.574585,0.165436 0.374786,2.161804 -0.367279,5.630035c-0.742126,3.468231 -2.016663,8.425385 -3.503357,14.546295c-1.486664,6.120911 -3.179413,13.390137 -4.463928,21.50531c-1.073425,6.781586 -1.858612,14.157623 -1.977692,21.891937l-8.956085,0c0.246521,-8.212128 1.338593,-15.970184 2.853516,-23.003448c1.801147,-8.362366 4.160034,-15.72821 6.469849,-21.795258c2.309845,-6.067078 4.565063,-10.81958 6.328613,-14.038879c1.763489,-3.219299 3.041748,-4.901459 3.616364,-4.735992z" fill-rule="evenodd" fill="#007f00"/>
   <path id="path2982" d="m566.683838,375.68634c-0.668518,0 -1.295776,1.606323 -1.907532,4.454041c-0.611816,2.847748 -1.221008,6.948425 -1.816711,12.041504c-0.595764,5.093048 -1.162109,11.166382 -1.604797,17.945709c-0.442688,6.779358 -0.749023,14.268707 -0.575256,22.166748c0.005432,0.262329 0.023376,0.515259 0.030212,0.776855c0.031982,1.362854 0.088379,2.722748 0.151367,4.065613l9.689148,0c-0.051025,-1.403931 -0.113098,-2.815277 -0.151489,-4.246887c-0.006287,-0.254883 -0.024475,-0.495209 -0.030151,-0.751007c-0.174133,-7.699921 -0.164368,-15.088867 -0.211914,-21.830048c-0.047607,-6.74118 -0.14325,-12.835052 -0.423889,-17.971619c-0.280762,-5.136505 -0.72467,-9.295563 -1.271729,-12.170959c-0.547058,-2.875366 -1.208679,-4.47995 -1.877258,-4.47995z" fill-rule="evenodd" fill="#007f00"/>
   <path id="path2984" d="m575.573792,382.080536c-0.594177,0.15744 -0.547913,1.880737 -0.141296,4.856812c0.406616,2.976166 1.177124,7.2117 1.977722,12.444092c0.800537,5.232361 1.610046,11.473755 2.260193,18.436584c0.572754,6.134552 1.004517,12.849121 1.327881,19.886383l9.040894,0c-0.371887,-7.298065 -1.07135,-14.291443 -2.090698,-20.659607c-1.139893,-7.121185 -2.654602,-13.477295 -4.294434,-18.726532c-1.639771,-5.249207 -3.398315,-9.393707 -4.859497,-12.178314c-1.461121,-2.784515 -2.626648,-4.216858 -3.220764,-4.059418z" fill-rule="evenodd" fill="#007f00"/>
   <path d="m323.756622,437.153564c0.023529,-1.520935 0.032562,-3.043396 0,-4.5914c-0.024384,-1.086395 -0.084991,-2.1875 -0.141022,-3.286224c-0.339935,-6.745605 -1.277466,-13.228333 -2.881317,-19.161285c-1.603851,-5.932983 -3.860443,-11.321564 -6.611603,-16.020447c-2.511536,-4.360992 -5.425446,-8.128143 -8.362793,-11.235718c-2.937408,-3.107574 -5.910034,-5.550201 -8.531891,-7.466278c-5.929016,-3.382111 -9.323822,-5.701782 -9.012848,-6.355133c0.329071,-0.644836 4.385712,0.461609 11.414124,3.044952c3.226685,1.612183 6.913544,3.92569 10.623016,7.055695c3.709442,3.129242 7.421661,7.097443 10.651062,11.83963c3.399323,5.053802 6.23999,10.914063 8.249786,17.349609c2.009796,6.434784 3.201355,13.434021 3.531372,20.63504c0.05426,1.172211 0.074127,2.348297 0.084991,3.50351c0.018066,1.584351 -0.009979,3.136169 -0.056061,4.688049l-8.956818,0l0,0z" id="path2986" fill-rule="evenodd" fill="#007f00"/>
   <path d="m353.22049,437.153381c0.191406,-1.506866 0.404663,-3.0159 0.565033,-4.54248c0.950592,-9.050446 1.25235,-17.836182 0.979401,-26.127045c-0.316223,-9.706085 -1.434326,-18.746948 -2.938141,-26.80365c-1.503815,-8.056671 -3.379425,-15.113098 -5.122864,-20.972504c-1.743469,-5.859406 -3.3237,-10.52475 -4.294189,-13.788391c-0.97049,-3.263672 -1.336853,-5.132172 -0.715698,-5.380066c0.621185,-0.247925 2.164978,1.147949 4.294189,4.059204c2.129211,2.911224 4.859985,7.34729 7.646637,13.144043c2.786652,5.796844 5.602783,12.97049 7.910339,21.294708c2.307495,8.324249 4.079681,17.794464 4.783813,28.027832c0.597748,8.723328 0.465149,17.983917 -0.527313,27.480164c-0.126862,1.213593 -0.262543,2.407806 -0.414337,3.608185l-12.16687,0z" id="path2988" fill-rule="evenodd" fill="#007f00"/>
   <path d="m378.906372,437.153381c2.414185,-6.3703 4.909363,-12.4375 7.204437,-18.122467c2.473083,-6.125916 4.707489,-11.839996 6.526367,-17.083435c1.060852,-3.063751 1.988647,-5.956909 2.74054,-8.650452c0.751831,-2.693542 1.320801,-5.184692 1.751648,-7.466461c0.421753,-2.254395 0.696289,-4.302582 0.875854,-6.089142c0.179535,-1.786591 0.25589,-3.30603 0.31076,-4.566864c0.054871,-1.260834 0.107544,-2.261719 0.197784,-2.947937c0.09021,-0.686188 0.231873,-1.063721 0.480255,-1.111511c0.248444,-0.047791 0.597717,0.240906 0.988861,0.869904c0.391174,0.628998 0.833527,1.608673 1.243134,2.899597c0.409576,1.290894 0.769501,2.89679 1.01709,4.808472c0.24762,1.911682 0.356598,4.112427 0.282532,6.548248c-0.070618,2.461792 -0.307343,5.172028 -0.762817,8.070557c-0.455475,2.898438 -1.114685,6.002045 -1.949432,9.230347c-1.423401,5.518494 -3.328705,11.486145 -5.565796,17.76001c-1.814209,5.08786 -3.865448,10.407776 -5.904816,15.851135l-9.436401,0z" id="path2990" fill-rule="evenodd" fill="#007f00"/>
   <path d="m511.693207,437.153381c-0.05246,-1.140259 -0.12262,-2.267029 -0.169556,-3.421509c-0.005432,-0.114044 0.004547,-0.233765 0,-0.347931c-0.382446,-9.744965 -0.563873,-19.042633 -0.779755,-27.545959c-0.215851,-8.503296 -0.489166,-16.210236 -0.881439,-22.674622c-0.392395,-6.464386 -0.899384,-11.69046 -1.525665,-15.309753c-0.626343,-3.619293 -1.353455,-5.625153 -2.102051,-5.625153c-0.748535,0 -1.464203,1.993713 -2.135803,5.596161c-0.671692,3.602478 -1.309021,8.805634 -1.898621,15.25177c-0.589539,6.446106 -1.125519,14.143951 -1.457855,22.703613c-0.332184,8.559692 -0.452942,17.993988 -0.06778,27.922882c0.004517,0.116333 -0.004486,0.23172 0,0.347961c0.040894,1.045776 0.11673,2.066956 0.169586,3.102539l10.848938,0z" id="path2992" fill-rule="evenodd" fill="#007f00"/>
   <path d="m483.299133,437.153564c-0.228729,-4.878296 -0.715118,-9.558624 -1.465485,-13.844574c-0.90863,-5.193787 -2.186127,-9.815338 -3.604614,-13.586365c-1.418549,-3.771027 -2.955444,-6.696899 -4.232941,-8.633057c-1.278381,-1.93692 -2.272858,-2.889526 -2.744812,-2.725616c-0.471924,0.164703 -0.377869,1.433563 0.046112,3.56073c0.424896,2.127869 1.149078,5.120239 1.860596,8.851868c0.712433,3.731567 1.397766,8.197723 1.884094,13.208221c0.395111,4.068726 0.645569,8.513214 0.814606,13.168793l7.442444,0l0,0z" id="path2994" fill-rule="evenodd" fill="#007f00"/>
   <path d="m541.613708,358.255219c-0.280212,-0.003815 -0.733276,0.296936 -1.327209,0.91861c-0.678955,0.709808 -1.541504,1.839478 -2.486267,3.358887c-0.945679,1.518616 -1.966309,3.43158 -2.938232,5.750488c-0.972839,2.318878 -1.889526,5.049133 -2.599243,8.118866c-0.65094,2.815308 -1.115723,5.915131 -1.356201,9.25473c-0.241333,3.339539 -0.24585,6.919556 0.028076,10.655823c0.407776,5.516907 1.349792,11.381836 2.825256,17.446259c1.475464,6.064362 3.478943,12.322906 5.76355,18.654053c0.465637,1.290527 0.937561,2.552399 1.412231,3.817413c0.186218,0.497955 0.377869,0.979645 0.565063,1.473724l9.436829,0c-0.475525,-1.26886 -0.940247,-2.506744 -1.413086,-3.793396c-0.456604,-1.251099 -0.901367,-2.502167 -1.35614,-3.76947c-2.230408,-6.21521 -4.242859,-12.26181 -5.847656,-18.025421c-1.604736,-5.764404 -2.791809,-11.246613 -3.503296,-16.407074c-0.483704,-3.484161 -0.77124,-6.822144 -0.848022,-9.931274c-0.076904,-3.109192 0.054199,-5.996368 0.310974,-8.650085c0.555115,-5.776031 1.759338,-10.399872 2.627258,-13.604126c0.43396,-1.602142 0.767578,-2.860168 0.932129,-3.745483c0.165466,-0.885376 0.150085,-1.390289 -0.113037,-1.497742c-0.032532,-0.013947 -0.072327,-0.023987 -0.112976,-0.02478l0,0z" id="path2996" fill-rule="evenodd" fill="#007f00"/>
   <path d="m434.18808,358.805603c0.102386,-0.017487 0.239777,0.015747 0.338531,0.144775c0.098785,0.128967 0.145264,0.37735 0.169312,0.550079c0.05069,0.30542 0.055237,0.701752 0,1.158142c-0.109009,0.902222 -0.425507,2.114777 -0.880249,3.56131c-0.904724,2.875275 -2.430725,6.826355 -4.265564,11.639374c-3.622192,9.497498 -8.539978,22.542877 -12.356659,37.929382c-1.853455,7.479462 -3.402679,15.522827 -4.468719,23.915741l-10.934784,0c1.159943,-9.169586 3.113525,-17.905701 5.484283,-25.913574c2.345367,-7.928741 5.101074,-15.15271 7.921844,-21.541534c2.82074,-6.388794 5.696014,-11.936523 8.328033,-16.503632c2.676727,-4.64624 5.066711,-8.246979 6.906219,-10.770721c0.933044,-1.283722 1.698792,-2.259338 2.302032,-2.953308c0.308289,-0.358307 0.567352,-0.61438 0.778656,-0.810699c0.137177,-0.180603 0.299652,-0.205902 0.40625,-0.26062c0.106598,-0.054626 0.168579,-0.127228 0.270813,-0.144714z" id="path2998" fill-rule="evenodd" fill="#007f00"/>
   <path d="m454.057495,374.130829c0.574585,0.165436 0.374786,2.161804 -0.367279,5.630035c-0.742126,3.468231 -2.016663,8.425385 -3.503357,14.546295c-1.486664,6.120911 -3.179413,13.390137 -4.463928,21.50531c-1.073425,6.781586 -1.858612,14.157623 -1.977692,21.891937l-8.956085,0c0.246521,-8.212128 1.338593,-15.970184 2.853516,-23.003448c1.801147,-8.362366 4.160034,-15.72821 6.469849,-21.795258c2.309845,-6.067078 4.565063,-10.81958 6.328613,-14.038879c1.763489,-3.219299 3.041748,-4.901459 3.616364,-4.735992z" id="path3000" fill-rule="evenodd" fill="#007f00"/>
   <path d="m566.683838,375.68634c-0.668518,0 -1.295776,1.606323 -1.907532,4.454041c-0.611816,2.847748 -1.221008,6.948425 -1.816711,12.041504c-0.595764,5.093048 -1.162109,11.166382 -1.604797,17.945709c-0.442688,6.779358 -0.749023,14.268707 -0.575256,22.166748c0.005432,0.262329 0.023376,0.515259 0.030212,0.776855c0.031982,1.362854 0.088379,2.722748 0.151367,4.065613l9.689148,0c-0.051025,-1.403931 -0.113098,-2.815277 -0.151489,-4.246887c-0.006287,-0.254883 -0.024475,-0.495209 -0.030151,-0.751007c-0.174133,-7.699921 -0.164368,-15.088867 -0.211914,-21.830048c-0.047607,-6.74118 -0.14325,-12.835052 -0.423889,-17.971619c-0.280762,-5.136505 -0.72467,-9.295563 -1.271729,-12.170959c-0.547058,-2.875366 -1.208679,-4.47995 -1.877258,-4.47995z" id="path3002" fill-rule="evenodd" fill="#007f00"/>
   <path d="m575.573792,382.080536c-0.594177,0.15744 -0.547913,1.880737 -0.141296,4.856812c0.406616,2.976166 1.177124,7.2117 1.977722,12.444092c0.800537,5.232361 1.610046,11.473755 2.260193,18.436584c0.572754,6.134552 1.004517,12.849121 1.327881,19.886383l9.040894,0c-0.371887,-7.298065 -1.07135,-14.291443 -2.090698,-20.659607c-1.139893,-7.121185 -2.654602,-13.477295 -4.294434,-18.726532c-1.639771,-5.249207 -3.398315,-9.393707 -4.859497,-12.178314c-1.461121,-2.784515 -2.626648,-4.216858 -3.220764,-4.059418z" id="path3004" fill-rule="evenodd" fill="#007f00"/>
   <path id="path3006" d="m331.044495,429.406647c0.023499,-1.561951 0.032562,-3.125397 0,-4.715149c-0.025299,-1.115753 -0.088623,-2.247009 -0.145538,-3.375122c-0.34903,-6.927307 -1.31189,-13.584808 -2.959106,-19.677795c-1.647247,-6.093018 -3.964417,-11.626221 -6.789703,-16.451935c-2.579376,-4.479248 -5.570984,-8.347748 -8.587921,-11.538818c-3.016937,-3.191101 -6.069122,-5.699463 -8.762421,-7.66806c-6.088135,-3.473328 -9.575165,-5.854858 -9.256012,-6.526031c0.338104,-0.662628 4.50415,0.473969 11.722351,3.126953c3.313507,1.656219 7.099823,4.031586 10.909637,7.24585c3.808929,3.213531 7.62146,7.289215 10.937622,12.158936c3.491577,5.189941 6.408203,11.207916 8.472229,17.816711c2.064056,6.608734 3.288177,13.7966 3.627228,21.191742c0.055115,1.204681 0.075897,2.411713 0.086761,3.598602c0.018097,1.626068 -0.009949,3.219696 -0.057861,4.814117l-9.197266,0l0,0z" fill-rule="evenodd" fill="#007f00"/>
   <path id="path3008" d="m358.41452,429.406311c0.237579,-1.762238 0.502319,-3.527039 0.701385,-5.312378c1.180023,-10.584534 1.554626,-20.859375 1.215759,-30.555573c-0.392548,-11.351257 -1.780457,-21.92453 -3.647278,-31.346802c-1.866791,-9.422272 -4.195129,-17.674774 -6.359375,-24.527344c-2.164246,-6.852539 -4.125946,-12.308685 -5.330627,-16.125488c-1.204712,-3.816864 -1.659576,-6.002014 -0.888458,-6.291992c0.771118,-0.289948 2.687531,1.342529 5.330658,4.747253c2.643127,3.404694 6.03299,8.592621 9.49231,15.371979c3.459229,6.779327 6.955109,15.168945 9.81958,24.904083c2.864471,9.735168 5.064392,20.810577 5.938538,32.778503c0.741974,10.201935 0.577423,21.032135 -0.654633,32.138c-0.157471,1.41925 -0.325897,2.815918 -0.514374,4.219757l-15.103485,0z" fill-rule="evenodd" fill="#007f00"/>
   <path id="path3010" d="m387.680237,429.406311c2.479279,-6.542023 5.041718,-12.772797 7.398651,-18.610962c2.539795,-6.291107 4.834442,-12.15918 6.702301,-17.543976c1.089478,-3.146301 2.042267,-6.117493 2.814423,-8.883636c0.772125,-2.766174 1.356415,-5.324463 1.798859,-7.667725c0.433136,-2.315186 0.715088,-4.418579 0.899445,-6.253296c0.184387,-1.834747 0.262787,-3.395172 0.319183,-4.689972c0.056305,-1.29483 0.110443,-2.322723 0.203094,-3.027405c0.092651,-0.704712 0.238098,-1.092407 0.493225,-1.141479c0.255127,-0.049072 0.613831,0.247375 1.015533,0.893341c0.401672,0.645966 0.855988,1.652069 1.276611,2.977722c0.420624,1.325745 0.790253,2.974915 1.044525,4.938141c0.254242,1.963226 0.36618,4.223297 0.290131,6.724762c-0.07251,2.528137 -0.315643,5.311493 -0.783386,8.288086c-0.467743,2.976624 -1.144714,6.16391 -2.001984,9.479248c-1.461761,5.667175 -3.418457,11.795746 -5.71582,18.238739c-1.863098,5.224976 -3.969635,10.688324 -6.063995,16.278412l-9.690796,0z" fill-rule="evenodd" fill="#007f00"/>
   <path id="path3012" d="m501.854553,429.406311c-0.053864,-1.17099 -0.125885,-2.328125 -0.174103,-3.513733c-0.005432,-0.117126 0.004547,-0.240082 0,-0.3573c-0.392761,-10.007721 -0.579041,-19.555969 -0.800781,-28.288513c-0.221741,-8.732513 -0.50238,-16.647217 -0.905212,-23.285889c-0.402924,-6.638672 -0.923523,-12.005554 -1.566803,-15.722412c-0.643158,-3.716888 -1.389893,-5.776825 -2.15863,-5.776825c-0.768768,0 -1.503693,2.047455 -2.193451,5.74704c-0.689758,3.699524 -1.34433,9.042969 -1.949768,15.662842c-0.605469,6.619904 -1.155884,14.525269 -1.497131,23.315704c-0.341217,8.790405 -0.46521,18.479034 -0.069611,28.675568c0.004486,0.119446 -0.004547,0.238007 0,0.357361c0.041901,1.073975 0.119904,2.12262 0.174072,3.186157l11.141418,0z" fill-rule="evenodd" fill="#007f00"/>
   <path id="path3014" d="m472.695099,429.406647c-0.235046,-5.009735 -0.7341,-9.816101 -1.504364,-14.218079c-0.933929,-5.33371 -2.245758,-10.079773 -3.702271,-13.952881c-1.457367,-3.872314 -3.035004,-6.877045 -4.347748,-8.865753c-1.311859,-1.988739 -2.334351,-2.967651 -2.818054,-2.798309c-0.484558,0.168579 -0.387817,1.471466 0.047943,3.656586c0.434875,2.18512 1.178955,5.258667 1.910309,9.090027c0.731445,3.832092 1.434814,8.418854 1.934753,13.564697c0.405914,4.177704 0.662659,8.742828 0.836273,13.523712l7.643158,0l0,0z" fill-rule="evenodd" fill="#007f00"/>
   <path id="path3016" d="m554.77356,348.381927c-0.287476,-0.003876 -0.753113,0.304626 -1.363342,0.942535c-0.697083,0.729156 -1.583008,1.889008 -2.553101,3.449371c-0.970093,1.560364 -2.01886,3.524384 -3.017883,5.905884c-0.998962,2.381561 -1.939331,5.185242 -2.668884,8.337708c-0.668091,2.891083 -1.145447,6.074463 -1.393188,9.503723c-0.24762,3.429993 -0.252197,7.105927 0.028931,10.94342c0.419495,5.665436 1.385986,11.68808 2.902161,17.916412c1.515198,6.22757 3.572937,12.654602 5.918091,19.156647c0.478271,1.32605 0.962891,2.622009 1.451111,3.921021c0.191711,0.511108 0.387878,1.005981 0.580444,1.513184l9.690857,0c-0.488159,-1.302887 -0.965515,-2.574799 -1.450989,-3.895477c-0.469238,-1.285095 -0.925781,-2.569427 -1.392334,-3.871552c-2.290894,-6.382172 -4.358643,-12.591949 -6.005859,-18.51178c-1.648132,-5.919037 -2.866821,-11.54892 -3.598267,-16.848602c-0.496338,-3.578461 -0.791077,-7.006165 -0.870605,-10.198822c-0.078674,-3.19339 0.05603,-6.157959 0.319092,-8.883545c0.570496,-5.931427 1.807312,-10.680542 2.69873,-13.970642c0.44574,-1.645447 0.78833,-2.937469 0.957458,-3.846802c0.169067,-0.908539 0.154602,-1.427399 -0.115723,-1.537964c-0.034363,-0.013885 -0.075073,-0.024719 -0.116699,-0.024719l0,0z" fill-rule="evenodd" fill="#007f00"/>
   <path id="path3018" d="m507.8367,348.946442c-0.105103,-0.017914 -0.246246,0.016144 -0.347687,0.148682c-0.10141,0.132477 -0.149109,0.387543 -0.173889,0.564941c-0.051971,0.313599 -0.056641,0.720642 0,1.189392c0.112,0.926514 0.437042,2.171722 0.903961,3.657288c0.92923,2.952789 2.496246,7.010376 4.380646,11.953125c3.719849,9.75351 8.770142,23.150543 12.689758,38.951813c1.903442,7.681091 3.494324,15.941254 4.589111,24.560425l11.229614,0c-1.191223,-9.416748 -3.197571,-18.388397 -5.632202,-26.612061c-2.408569,-8.142517 -5.238525,-15.561218 -8.135315,-22.122253c-2.89679,-6.561035 -5.849609,-12.25827 -8.552612,-16.948517c-2.74884,-4.771545 -5.203247,-8.46933 -7.092316,-11.061096c-0.958191,-1.318329 -1.744568,-2.320221 -2.364105,-3.032898c-0.316681,-0.36795 -0.582672,-0.630981 -0.799622,-0.832581c-0.1409,-0.185425 -0.3078,-0.211426 -0.417236,-0.267578c-0.109497,-0.056122 -0.173096,-0.130676 -0.278107,-0.148682z" fill-rule="evenodd" fill="#007f00"/>
   <path id="path3020" d="m442.665192,364.684814c0.590088,0.169891 0.384918,2.220093 -0.377167,5.78183c-0.762146,3.561707 -2.071014,8.652527 -3.597809,14.938416c-1.526794,6.285889 -3.265137,13.751068 -4.58429,22.084991c-1.102325,6.964417 -1.908661,14.539276 -2.030975,22.482117l-9.19754,0c0.253204,-8.433502 1.374725,-16.400696 2.93045,-23.623535c1.849731,-8.58783 4.272217,-16.152252 6.644287,-22.382843c2.37207,-6.230591 4.68811,-11.111237 6.499176,-14.417297c1.811035,-3.30603 3.123749,-5.033569 3.713867,-4.863678z" fill-rule="evenodd" fill="#007f00"/>
   <path id="path3022" d="m580.519592,366.282288c-0.686523,0 -1.330688,1.649658 -1.958923,4.574127c-0.628296,2.924469 -1.253845,7.135712 -1.865723,12.366119c-0.611816,5.230347 -1.193359,11.467377 -1.647949,18.429443c-0.45459,6.962097 -0.769287,14.653351 -0.59082,22.764282c0.005371,0.26944 0.024048,0.529144 0.031006,0.797821c0.032898,1.399628 0.09082,2.796143 0.155457,4.175171l9.950256,0c-0.052307,-1.441772 -0.116089,-2.891144 -0.155396,-4.361359c-0.006409,-0.261749 -0.025208,-0.508514 -0.031067,-0.77121c-0.178833,-7.907532 -0.168823,-15.495636 -0.217651,-22.418549c-0.048828,-6.922882 -0.147095,-13.18103 -0.435364,-18.456085c-0.288208,-5.274963 -0.74408,-9.546143 -1.305969,-12.499023c-0.561829,-2.952911 -1.241272,-4.600739 -1.927856,-4.600739z" fill-rule="evenodd" fill="#007f00"/>
   <path id="path3024" d="m589.649231,372.848846c-0.610168,0.161682 -0.562622,1.931396 -0.145081,4.987732c0.417542,3.056366 1.208801,7.406128 2.030945,12.779541c0.822144,5.373413 1.653564,11.783051 2.321167,18.933594c0.588196,6.299896 1.031616,13.195465 1.363708,20.422455l9.284607,0c-0.381958,-7.494843 -1.100281,-14.676697 -2.147095,-21.216553c-1.170593,-7.31311 -2.726135,-13.840607 -4.410217,-19.231323c-1.68396,-5.390717 -3.489868,-9.646942 -4.990479,-12.506561c-1.500488,-2.85965 -2.697449,-4.330566 -3.307556,-4.168884z" fill-rule="evenodd" fill="#007f00"/>
   <path d="m349.203979,431.804413c0.020782,-1.346954 0.028015,-2.693909 0,-4.064117c-0.021698,-0.962646 -0.075928,-1.93692 -0.125641,-2.909637c-0.301086,-5.970825 -1.131012,-11.709686 -2.550446,-16.961426c-1.420319,-5.252563 -3.41745,-10.02179 -5.852173,-14.181732c-2.223145,-3.860687 -4.80249,-7.194855 -7.403534,-9.946014c-2.600159,-2.751129 -5.231079,-4.913025 -7.552765,-6.609528c-5.247314,-2.993927 -8.253418,-5.046814 -7.977661,-5.625214c0.291077,-0.571381 3.882141,0.408264 10.104065,2.694733c2.856018,1.427368 6.119781,3.475647 9.403412,6.246094c3.283661,2.770447 6.570007,6.283203 9.428741,10.481079c3.008789,4.473083 5.523956,9.660614 7.302307,15.357788c1.779236,5.69635 2.83432,11.892212 3.126312,18.266632c0.047943,1.037689 0.06601,2.078461 0.075073,3.10144c0.01535,1.401855 -0.009064,2.775848 -0.049744,4.149902l-7.927948,0l0,0z" id="path3026" fill-rule="evenodd" fill="#007f00"/>
   <path d="m376.189362,431.804077c0.169434,-1.333893 0.358246,-2.669708 0.500183,-4.021057c0.841492,-8.011597 1.108582,-15.788849 0.866974,-23.128082c-0.279938,-8.59198 -1.269653,-16.595062 -2.600891,-23.726959c-1.331238,-7.131897 -2.991516,-13.378387 -4.534882,-18.565186c-1.543274,-5.186859 -2.942139,-9.316711 -3.801208,-12.20578c-0.8591,-2.889008 -1.183441,-4.54303 -0.633575,-4.762482c0.549866,-0.219452 1.916473,1.016205 3.80127,3.593262c1.884827,2.577057 4.302124,6.503937 6.768951,11.635376c2.466766,5.131378 4.959625,11.481659 7.002319,18.850372c2.042664,7.368713 3.611389,15.751923 4.234741,24.810699c0.529083,7.721985 0.411743,15.919586 -0.466827,24.325806c-0.112274,1.07431 -0.232361,2.131409 -0.366821,3.194031l-10.770233,0z" id="path3028" fill-rule="evenodd" fill="#007f00"/>
   <path d="m398.022797,431.804077c2.137085,-5.639099 4.345825,-11.009857 6.377472,-16.042297c2.18924,-5.42276 4.167175,-10.480896 5.777252,-15.122528c0.939087,-2.712036 1.760406,-5.273163 2.425964,-7.657501c0.665558,-2.384369 1.16922,-4.589539 1.550598,-6.609406c0.373322,-1.995636 0.616394,-3.808746 0.775299,-5.390198c0.158966,-1.581512 0.226532,-2.926575 0.275116,-4.042664c0.048553,-1.116089 0.095184,-2.002136 0.175049,-2.609558c0.079834,-0.607422 0.205292,-0.94162 0.425171,-0.983948c0.21991,-0.042267 0.529114,0.213226 0.875336,0.770081c0.346283,0.556793 0.737854,1.424011 1.100464,2.566711c0.362549,1.142761 0.681183,2.564331 0.90036,4.256561c0.219116,1.69223 0.315643,3.640411 0.250092,5.7966c-0.062469,2.17923 -0.272125,4.57843 -0.675293,7.144226c-0.403198,2.565735 -0.986725,5.313141 -1.725677,8.170868c-1.26001,4.884979 -2.946625,10.167694 -4.92688,15.721405c-1.605957,4.503815 -3.421783,9.213104 -5.227112,14.031647l-8.35321,0z" id="path3030" fill-rule="evenodd" fill="#007f00"/>
   <path d="m497.110382,431.804077c-0.046448,-1.009338 -0.108521,-2.006805 -0.149994,-3.028748c-0.004578,-0.100952 0.003571,-0.20697 0,-0.307983c-0.338593,-8.626434 -0.499176,-16.856873 -0.690308,-24.384125c-0.191132,-7.527222 -0.433014,-14.349579 -0.780304,-20.07193c-0.34726,-5.722412 -0.796082,-10.348602 -1.350525,-13.552429c-0.554413,-3.203857 -1.198059,-4.979492 -1.860657,-4.979492c-0.662659,0 -1.296234,1.764862 -1.890747,4.953796c-0.594574,3.188995 -1.158722,7.794891 -1.680603,13.501099c-0.521942,5.706207 -0.996399,12.520447 -1.290558,20.097626c-0.294098,7.577179 -0.401001,15.928589 -0.060028,24.717743c0.003632,0.102997 -0.003601,0.20517 0,0.308044c0.036194,0.925751 0.103363,1.829651 0.150085,2.746399l9.603638,0z" id="path3032" fill-rule="evenodd" fill="#007f00"/>
   <path d="m471.975464,431.804413c-0.202515,-4.318481 -0.632874,-8.461456 -1.296478,-12.255646c-0.804657,-4.597595 -1.935638,-8.688721 -3.191406,-12.026764c-1.255798,-3.338776 -2.616455,-5.928284 -3.747467,-7.642517c-1.130981,-1.714233 -2.011566,-2.557831 -2.429291,-2.412476c-0.417664,0.146118 -0.334503,1.26886 0.04068,3.152435c0.376129,1.882782 1.01709,4.532623 1.647278,7.835876c0.631042,3.303192 1.236755,7.256714 1.66806,11.691925c0.349854,3.600922 0.570465,7.535858 0.720551,11.657166l6.588074,0l0,0z" id="path3034" fill-rule="evenodd" fill="#007f00"/>
   <path d="m542.054016,361.96286c-0.247742,-0.003113 -0.64917,0.262115 -1.175293,0.812622c-0.601257,0.628632 -1.364319,1.628448 -2.200562,2.973083c-0.836304,1.344635 -1.740356,3.038025 -2.601074,5.090912c-0.861633,2.052124 -1.672546,4.469238 -2.300964,7.18634c-0.575867,2.492126 -0.987183,5.236267 -1.200562,8.192291c-0.21344,2.956848 -0.217896,6.125488 0.024353,9.43338c0.361694,4.882904 1.195251,10.075134 2.501648,15.44281c1.306396,5.368561 3.0802,10.908691 5.101807,16.513031c0.412231,1.142822 0.829895,2.260162 1.250305,3.379791c0.164551,0.440735 0.334473,0.867493 0.499939,1.304382l8.35376,0c-0.421265,-1.122711 -0.832642,-2.219147 -1.250366,-3.358093c-0.405029,-1.107269 -0.798279,-2.214508 -1.200623,-3.336456c-1.974487,-5.501495 -3.75647,-10.854553 -5.176758,-15.957062c-1.421204,-5.101715 -2.471802,-9.955261 -3.101929,-14.523499c-0.427673,-3.084351 -0.681641,-6.038879 -0.749451,-8.790771c-0.068726,-2.752686 0.046997,-5.308167 0.27478,-7.65802c0.491821,-5.112549 1.557739,-9.205994 2.325317,-12.042206c0.384216,-1.418091 0.679871,-2.531555 0.8255,-3.315582c0.146423,-0.783264 0.132874,-1.230194 -0.099487,-1.32608c-0.028931,-0.011627 -0.065125,-0.020874 -0.100342,-0.020874l0,0z" id="path3036" fill-rule="evenodd" fill="#007f00"/>
   <path d="m501.595154,362.449371c-0.090607,-0.015472 -0.21225,0.013947 -0.299713,0.128204c-0.087372,0.114136 -0.128571,0.334015 -0.149811,0.486938c-0.04483,0.270325 -0.048828,0.621155 0,1.025177c0.096497,0.798676 0.376587,1.87204 0.779205,3.152557c0.800873,2.545227 2.151703,6.042755 3.775879,10.303345c3.206482,8.407288 7.559784,19.955261 10.938385,33.575653c1.640686,6.620941 3.012024,13.741028 3.95575,21.170593l9.679688,0c-1.026794,-8.117065 -2.756226,-15.850403 -4.854858,-22.939087c-2.076172,-7.018677 -4.515503,-13.413452 -7.012512,-19.068939c-2.496948,-5.655426 -5.042236,-10.566376 -7.372131,-14.609222c-2.369507,-4.112976 -4.485138,-7.300385 -6.113464,-9.534454c-0.825958,-1.136383 -1.503815,-1.999939 -2.037842,-2.614319c-0.272858,-0.317139 -0.502197,-0.543854 -0.689178,-0.717621c-0.12146,-0.159851 -0.265289,-0.182251 -0.35968,-0.230621c-0.09436,-0.048431 -0.1492,-0.112671 -0.239716,-0.128204z" id="path3038" fill-rule="evenodd" fill="#007f00"/>
   <path d="m446.090393,376.015503c0.508636,0.146454 0.331787,1.913666 -0.325134,4.983826c-0.656921,3.070099 -1.785095,7.458282 -3.101257,12.876556c-1.315979,5.418335 -2.814423,11.85318 -3.951508,19.036865c-0.950195,6.003143 -1.645233,12.532562 -1.750641,19.379089l-7.928131,0c0.218262,-7.269531 1.184967,-14.137024 2.526001,-20.363007c1.594452,-7.402496 3.682556,-13.922913 5.727234,-19.293518c2.044678,-5.370636 4.041138,-9.577667 5.602203,-12.427429c1.561066,-2.849701 2.692566,-4.338837 3.201233,-4.192383z" id="path3040" fill-rule="evenodd" fill="#007f00"/>
   <path d="m564.246338,377.392487c-0.591858,0 -1.147095,1.421936 -1.68866,3.94281c-0.541565,2.520813 -1.08075,6.150818 -1.608154,10.659302c-0.527344,4.508484 -1.028687,9.884674 -1.420471,15.885864c-0.391907,6.001129 -0.663147,12.630829 -0.509277,19.622284c0.004456,0.232239 0.020691,0.456116 0.026733,0.687714c0.028381,1.206451 0.078247,2.410217 0.133972,3.598938l8.576965,0c-0.045105,-1.242798 -0.100037,-2.492126 -0.133972,-3.759399c-0.005493,-0.225647 -0.02179,-0.438385 -0.026794,-0.664795c-0.154175,-6.816101 -0.145508,-13.356903 -0.187683,-19.32428c-0.042114,-5.967438 -0.12677,-11.361847 -0.375183,-15.908783c-0.248474,-4.546967 -0.641479,-8.228607 -1.125732,-10.773895c-0.484314,-2.54538 -1.070007,-3.965759 -1.661743,-3.965759z" id="path3042" fill-rule="evenodd" fill="#007f00"/>
   <path d="m572.115906,383.052734c-0.526001,0.139374 -0.485046,1.664856 -0.125061,4.299316c0.359863,2.634491 1.041931,6.383972 1.75061,11.015717c0.708679,4.631744 1.425293,10.156708 2.000793,16.320374c0.50708,5.430359 0.889282,11.374176 1.175415,17.603699l8.003174,0c-0.329224,-6.460388 -0.948364,-12.651001 -1.850708,-18.288208c-1.009033,-6.303741 -2.349976,-11.930328 -3.801453,-16.576996c-1.451599,-4.646667 -3.008301,-8.315491 -4.301758,-10.780426c-1.293396,-2.464935 -2.325134,-3.732849 -2.851013,-3.593475z" id="path3044" fill-rule="evenodd" fill="#007f00"/>
   <path id="path3046" d="m451.557953,431.804077c0.169403,-1.333893 0.358246,-2.669708 0.500183,-4.021057c0.841431,-8.011597 1.108582,-15.788849 0.866913,-23.128082c-0.279846,-8.59198 -1.269653,-16.595062 -2.60083,-23.726959c-1.331238,-7.131897 -2.991516,-13.378387 -4.534851,-18.565186c-1.543335,-5.186859 -2.9422,-9.316711 -3.80127,-12.20578c-0.8591,-2.889008 -1.183472,-4.54303 -0.633575,-4.762482c0.549866,-0.219452 1.916473,1.016205 3.801239,3.593262c1.884827,2.577057 4.302155,6.503937 6.768982,11.635376c2.466797,5.131378 4.959686,11.481659 7.002319,18.850372c2.042633,7.368713 3.611389,15.751923 4.234741,24.810699c0.529144,7.721985 0.411774,15.919586 -0.466827,24.325806c-0.112274,1.07431 -0.232361,2.131409 -0.36676,3.194031l-10.770264,0z" fill-rule="evenodd" fill="#007f00"/>
   <path id="path3048" d="m483.617401,361.96286c-0.247772,-0.003113 -0.649139,0.262115 -1.175354,0.812622c-0.600311,0.628632 -1.364227,1.628448 -2.2005,2.973083c-0.836273,1.344635 -1.740356,3.038025 -2.601074,5.090912c-0.860718,2.052124 -1.671661,4.469238 -2.300873,7.18634c-0.575928,2.492126 -0.987305,5.236267 -1.200653,8.192291c-0.213379,2.956848 -0.216949,6.125488 0.025269,9.43338c0.361664,4.882904 1.194366,10.075134 2.500763,15.44281c1.306427,5.368561 3.0802,10.908691 5.101776,16.513031c0.412231,1.142822 0.829895,2.260162 1.250336,3.379791c0.165436,0.440735 0.334503,0.867493 0.500824,1.304382l8.352905,0c-0.42038,-1.122711 -0.831726,-2.219147 -1.250366,-3.358093c-0.404114,-1.107269 -0.798279,-2.214508 -1.200653,-3.336456c-1.974548,-5.501495 -3.756409,-10.854553 -5.176788,-15.957062c-1.420319,-5.101715 -2.470856,-9.955261 -3.101044,-14.523499c-0.428528,-3.084351 -0.682556,-6.038879 -0.750366,-8.790771c-0.068726,-2.752686 0.047943,-5.308167 0.274841,-7.65802c0.491821,-5.112549 1.55777,-9.205994 2.326202,-12.042206c0.384216,-1.418091 0.679016,-2.531555 0.825439,-3.315582c0.145599,-0.783264 0.132904,-1.230194 -0.100342,-1.32608c-0.028931,-0.011627 -0.064178,-0.020874 -0.100342,-0.020874l0,0z" fill-rule="evenodd" fill="#007f00"/>
   <path id="path3050" d="m563.785461,366.315521c0.090637,-0.015503 0.21228,0.013916 0.299744,0.128174c0.087402,0.114166 0.12854,0.334015 0.14978,0.486938c0.044861,0.270325 0.048889,0.621155 0,1.025177c-0.096497,0.798676 -0.376648,1.87207 -0.779175,3.152557c-0.800903,2.545227 -2.151733,6.042755 -3.775879,10.303345c-3.206482,8.407318 -7.559753,19.955261 -10.938354,33.575684c-1.640686,6.620911 -3.012146,13.741028 -3.955811,21.170563l-9.679626,0c1.026733,-8.117065 2.756165,-15.850403 4.854736,-22.939087c2.076233,-7.018677 4.515564,-13.413452 7.012573,-19.068909c2.496948,-5.655457 5.042236,-10.566406 7.372131,-14.609253c2.369446,-4.112946 4.485168,-7.300385 6.113464,-9.534454c0.825989,-1.136383 1.503845,-1.999939 2.037842,-2.614288c0.272888,-0.317169 0.502197,-0.543884 0.689209,-0.717651c0.12146,-0.159851 0.265259,-0.182251 0.359619,-0.230621c0.09436,-0.048431 0.149292,-0.112671 0.239746,-0.128174z" fill-rule="evenodd" fill="#007f00"/>
   <path id="path3052" d="m604.880493,376.015503c0.508667,0.146454 0.331787,1.913666 -0.325134,4.983826c-0.656982,3.070099 -1.785156,7.458282 -3.101257,12.876556c-1.31604,5.418335 -2.814514,11.85318 -3.951538,19.036865c-0.950195,6.003143 -1.645203,12.532562 -1.750671,19.379089l-7.92804,0c0.218201,-7.269531 1.184937,-14.137024 2.52594,-20.363007c1.594482,-7.402496 3.682556,-13.922913 5.727234,-19.293518c2.044739,-5.370636 4.041077,-9.577667 5.602234,-12.427429c1.561096,-2.849701 2.692505,-4.338837 3.201233,-4.192383z" fill-rule="evenodd" fill="#007f00"/>
   <path id="path3054" d="m524.795776,375.072815c-0.591858,0 -1.147095,1.421936 -1.688599,3.94281c-0.541504,2.520813 -1.08075,6.150818 -1.608093,10.659302c-0.527405,4.508484 -1.028748,9.884674 -1.420593,15.885864c-0.391907,6.001129 -0.663147,12.630829 -0.509216,19.622284c0.004456,0.232239 0.02063,0.456116 0.026733,0.687683c0.02832,1.206482 0.078247,2.410248 0.133972,3.598969l8.576904,0c-0.045044,-1.242798 -0.100037,-2.492126 -0.133972,-3.75943c-0.005493,-0.225616 -0.021729,-0.438354 -0.026733,-0.664764c-0.154175,-6.816101 -0.145508,-13.356903 -0.187744,-19.32428c-0.042053,-5.967438 -0.126709,-11.361847 -0.375183,-15.908783c-0.248413,-4.546967 -0.641418,-8.228607 -1.125671,-10.773895c-0.484314,-2.54538 -1.069946,-3.965759 -1.661804,-3.965759z" fill-rule="evenodd" fill="#007f00"/>
   <path id="path3056" d="m465.762878,379.959839c-0.525909,0.139343 -0.484985,1.664856 -0.125,4.299316c0.359924,2.634491 1.041962,6.383972 1.750641,11.015717c0.70871,4.631744 1.425293,10.156677 2.000763,16.320343c0.50708,5.430389 0.889282,11.374207 1.175476,17.603729l8.003143,0c-0.329224,-6.460388 -0.948425,-12.651001 -1.850739,-18.288208c-1.009033,-6.303741 -2.349884,-11.930359 -3.801453,-16.576996c-1.45163,-4.646667 -3.00827,-8.315491 -4.301697,-10.780426c-1.293457,-2.464935 -2.325165,-3.732849 -2.851135,-3.593475z" fill-rule="evenodd" fill="#007f00"/>
   <g id="g3354" fill="#00892c"/>
  </g>
 </g>
</svg>