<?xml version="1.0" standalone="no"?>
<!DOCTYPE svg PUBLIC "-//W3C//DTD SVG 20010904//EN"
 "http://www.w3.org/TR/2001/REC-SVG-20010904/DTD/svg10.dtd">
<svg version="1.0" xmlns="http://www.w3.org/2000/svg"
 width="1024.000000pt" height="1024.000000pt" viewBox="0 0 1024.000000 1024.000000"
 preserveAspectRatio="xMidYMid meet">

<g transform="translate(0.000000,1024.000000) scale(0.100000,-0.100000)"
fill="#000000" stroke="none">
<path d="M5843 9412 c-47 -17 -190 -157 -1828 -1788 -977 -973 -1787 -1784
-1801 -1801 -131 -172 -12 -424 201 -427 132 -2 -15 -139 1838 1713 l1677
1676 687 -687 688 -688 -806 -807 c-879 -880 -834 -829 -833 -948 1 -72 20
-119 69 -173 77 -85 206 -112 305 -63 32 17 271 248 842 819 l798 797 802
-802 c585 -583 814 -806 843 -819 59 -25 159 -23 217 5 54 26 113 86 136 140
21 48 19 155 -2 206 -25 57 -3572 3606 -3633 3635 -63 30 -138 34 -200 12z"/>
<path d="M3780 2155 l0 -805 535 0 535 0 0 805 0 805 -535 0 -535 0 0 -805z"/>
</g>
</svg>
